<?xml version="1.0" encoding="UTF-8"?>
<svg version="1.1" xmlns="http://www.w3.org/2000/svg" width="2333" height="4000">
<path d="M0 0 C12.21 0 24.42 0 37 0 C37 0.66 37 1.32 37 2 C37.5583252 1.98428955 38.11665039 1.9685791 38.69189453 1.95239258 C122.97365103 -0.04548463 210.25308189 19.66469569 342 72 C342.87688477 72.39783691 343.75376953 72.79567383 344.65722656 73.20556641 C356.76730662 78.71601112 368.44857578 84.89487991 380.06835938 91.37011719 C383.07580251 93.04214337 386.09195493 94.69761882 389.109375 96.3515625 C428.80068839 118.21005149 466.22859671 143.79335954 501.2265625 172.546875 C502.8432593 173.87156929 504.46808288 175.1863296 506.09375 176.5 C511.43054086 180.81740384 516.60007006 185.26909833 521.67578125 189.890625 C523.72042335 191.74626657 525.78784149 193.56756376 527.875 195.375 C532.80059077 199.66885167 537.59777064 204.10175757 542.40136719 208.53076172 C543.97334931 209.97550644 545.55214048 211.41242972 547.1328125 212.84765625 C557.65397168 222.43078828 568.19653311 232.23615836 577.3984375 243.11328125 C579.38468785 245.45318105 581.44091507 247.72398807 583.5 250 C586.17048344 252.95869751 588.82298058 255.92926472 591.4375 258.9375 C594.19784541 262.11221597 597.02792558 265.21537436 599.875 268.3125 C604.7957178 273.71491457 609.42792553 279.30168859 614 285 C614.91225289 286.12020516 615.82503803 287.23997705 616.73828125 288.359375 C628.91715956 303.35238203 640.20510516 318.98750375 651 335 C651.6175415 335.91096436 651.6175415 335.91096436 652.24755859 336.84033203 C690.9204337 393.92302728 721.78088186 455.74719831 744 521 C744.40283203 522.17191895 744.80566406 523.34383789 745.22070312 524.55126953 C764.62555355 581.37426852 775.31784852 639.91930391 781.375 699.5625 C781.45462982 700.33306732 781.53425964 701.10363464 781.61630249 701.89755249 C783.77838736 723.14309694 784.21425108 744.47002278 784.1875 765.8125 C784.18623108 766.87425446 784.18496216 767.93600891 784.18365479 769.02993774 C784.07342156 817.89833081 779.67685603 867.0622356 770 915 C769.85647095 915.7138385 769.71294189 916.427677 769.56506348 917.16314697 C752.27613148 1002.6751208 720.56995893 1085.24147956 651 1199 C650.21737793 1200.14202881 650.21737793 1200.14202881 649.41894531 1201.30712891 C634.55553364 1222.93326424 618.419543 1243.44890835 601.37255859 1263.38916016 C599.96681432 1265.03894684 598.57072891 1266.69654745 597.17578125 1268.35546875 C590.0222094 1276.82873674 582.52906796 1284.93654332 574.90234375 1292.984375 C572.39276597 1295.64339376 569.90643707 1298.32358351 567.41992188 1301.00415039 C559.88135874 1309.12410162 552.3174604 1317.09925333 543.8984375 1324.3203125 C542.02029247 1325.98204576 540.25694484 1327.71125525 538.5 1329.5 C534.83717092 1333.21199457 530.95893845 1336.60846641 527 1340 C526.00226563 1340.86367187 525.00453125 1341.72734375 523.9765625 1342.6171875 C510.36262488 1354.38111281 496.54932547 1365.81978738 482.05126953 1376.48144531 C479.99952246 1378.00035352 477.96537332 1379.54044954 475.93359375 1381.0859375 C452.74346471 1398.61083762 428.18088911 1414.5024127 403 1429 C402.00162109 1429.57621094 401.00324219 1430.15242188 399.97460938 1430.74609375 C328.75044802 1471.66694909 252.13184792 1501.12479062 80.25 1530.375 C79.37095001 1530.45462982 78.49190002 1530.53425964 77.58621216 1530.61630249 C58.58354705 1532.3074067 39.5781287 1533.21406573 20.5 1533.1875 C19.6757251 1533.18689575 18.8514502 1533.1862915 18.00219727 1533.18566895 C-24.55460425 1533.10255811 -66.92674199 1528.9725983 -108.94036865 1522.32562256 C-110.94362091 1522.00891339 -112.94763168 1521.69701368 -114.95166016 1521.38525391 C-153.01847773 1515.3449548 -190.51240688 1505.33684017 -227 1493 C-228.32989993 1492.5538277 -229.65981527 1492.1077013 -230.98974609 1491.66162109 C-296.2894372 1469.66689249 -359.784593 1437.84102107 -416 1398 C-416.73057617 1397.48405273 -417.46115234 1396.96810547 -418.21386719 1396.43652344 C-435.71196122 1384.04364679 -452.75781854 1371.03799602 -469.29980469 1357.39599609 C-470.86072502 1356.11435588 -472.43370991 1354.84744619 -474.0078125 1353.58203125 C-479.87953109 1348.85621785 -485.46808369 1343.90805072 -490.98046875 1338.7734375 C-493.11080107 1336.79350663 -495.29266305 1334.89091484 -497.50341797 1333.00146484 C-502.88304874 1328.29938476 -507.91288142 1323.25136667 -512.96484375 1318.203125 C-514.007952 1317.16324048 -515.05113071 1316.12342663 -516.09437561 1315.0836792 C-518.27033499 1312.91367073 -520.44425562 1310.74164327 -522.61694336 1308.56835938 C-525.37282495 1305.81237638 -528.13551671 1303.06333297 -530.90004635 1300.31602859 C-533.05450549 1298.1728012 -535.20428959 1296.02492896 -537.35287666 1293.87581635 C-538.36812883 1292.86172769 -539.38496363 1291.84922044 -540.40354729 1290.83847809 C-546.34100344 1284.94247172 -551.91548454 1278.88404477 -557.13148499 1272.33148193 C-559.46565208 1269.41897207 -561.9412574 1266.71668967 -564.5 1264 C-569.58789794 1258.5266687 -574.33187996 1252.83322107 -579 1247 C-579.92240375 1245.86916043 -580.84562196 1244.73898485 -581.76953125 1243.609375 C-589.57918623 1234.01754663 -596.86517007 1224.10101708 -604 1214 C-604.960271 1212.64479248 -604.960271 1212.64479248 -605.93994141 1211.26220703 C-615.02692248 1198.41373053 -623.80072886 1185.43327801 -632 1172 C-632.59699707 1171.02240723 -633.19399414 1170.04481445 -633.80908203 1169.03759766 C-680.4728931 1092.39178192 -713.82969741 1009.48008191 -747.203125 786.8515625 C-747.20595238 785.97740063 -747.20877975 785.10323875 -747.21169281 784.20258713 C-747.22653771 779.56278962 -747.23585567 774.92302194 -747.24023438 770.28320312 C-747.24458407 766.54319314 -747.25836063 762.80341839 -747.28125 759.06347656 C-747.48178237 725.54432043 -745.72661858 692.61320512 -740.75 659.4375 C-740.60004578 658.41580719 -740.45009155 657.39411438 -740.29559326 656.34146118 C-728.52432546 576.25906725 -704.14542857 500.07553539 -653 397 C-652.12263184 395.45094971 -652.12263184 395.45094971 -651.22753906 393.87060547 C-632.51802749 360.83921115 -611.85101407 328.98593113 -588.55078125 298.99609375 C-587.08152075 297.10492973 -585.61858051 295.20902388 -584.15625 293.3125 C-578.17007431 285.58471665 -571.91562919 278.12555192 -565.50732422 270.74560547 C-564.01564678 269.01812025 -562.53879474 267.27909785 -561.06640625 265.53515625 C-554.21535576 257.43410553 -547.09181259 249.63539342 -539.80859375 241.921875 C-537.95799475 239.95536376 -536.11811216 237.97934413 -534.28125 236 C-526.45136554 227.56294661 -518.67216584 219.22694958 -509.93359375 211.71484375 C-508.04505403 210.03995701 -506.26844352 208.30052413 -504.5 206.5 C-500.83729197 202.7881281 -496.96020571 199.38988482 -493 196 C-491.94517618 195.09260636 -490.89050014 194.18504092 -489.8359375 193.27734375 C-486.82876136 190.69152021 -483.81535196 188.11307973 -480.79931641 185.53759766 C-479.6391774 184.54620614 -478.47992905 183.55377096 -477.32177734 182.56005859 C-469.67803375 176.00203482 -461.88695631 169.67668692 -453.92919922 163.50390625 C-451.8831559 161.90891424 -449.8492584 160.29926467 -447.81640625 158.6875 C-436.83969876 150.01673117 -425.55338985 141.88377813 -414 134 C-412.99308105 133.31212402 -412.99308105 133.31212402 -411.96582031 132.61035156 C-407.67582685 129.69068059 -403.35202455 126.82630223 -399 124 C-398.30680664 123.54979492 -397.61361328 123.09958984 -396.89941406 122.63574219 C-372.27958173 106.72066227 -346.73224666 91.96285495 -320.35400391 79.15039062 C-317.60728372 77.8080814 -314.87278283 76.44202007 -312.13671875 75.078125 C-241.05519171 39.92797812 -163.10667092 17.96701595 0 2 C0 1.34 0 0.68 0 0 Z " fill="#D9251D" transform="translate(1253,1080)"/>
<path d="M0 0 C1.32 0.33 2.64 0.66 4 1 C-0.04960239 29.09380704 -4.30617897 57.15104966 -8.70766449 85.19177246 C-9.19692133 88.31004678 -9.68540236 91.42844173 -10.17364502 94.546875 C-14.37338067 121.36998705 -18.59826601 148.18905228 -22.875 175 C-22.98580273 175.6947644 -23.09660545 176.38952881 -23.21076584 177.10534668 C-25.59585319 192.05806092 -27.99757622 207.00797565 -30.4296875 221.953125 C-34.79049566 248.7800844 -38.87899248 275.62532605 -42.66104126 302.5397644 C-44.30548096 314.21515828 -46.00581789 325.88228623 -47.72384644 337.54705811 C-48.06938868 339.89680953 -48.41345025 342.24677927 -48.75588989 344.59698486 C-50.39317729 355.82957806 -52.0313189 367.01560822 -54.47558594 378.10498047 C-54.96628467 380.81387504 -55.10294194 383.255517 -55 386 C-52.34672268 387.32663866 -50.36109985 387.1198632 -47.3888092 387.11352539 C-46.19558548 387.1134549 -45.00236176 387.1133844 -43.77297974 387.11331177 C-42.45707855 387.10814545 -41.14117737 387.10297913 -39.78540039 387.09765625 C-38.39097649 387.09573787 -36.9965519 387.09427369 -35.60212708 387.0932312 C-32.59554336 387.09006554 -29.58898759 387.08378993 -26.58241463 387.07516479 C-21.83053418 387.06167135 -17.07866311 387.05575432 -12.32676697 387.05102539 C-1.38038038 387.03896618 9.56598194 387.01691712 20.51235199 386.99479675 C30.5403639 386.97463205 40.56836766 386.95655746 50.59639555 386.94658184 C55.32228747 386.94159153 60.04813676 386.93171978 64.77401149 386.91815186 C67.71209316 386.91070362 70.65016891 386.90737884 73.58825874 386.9051857 C75.60466374 386.90241432 77.62105986 386.89461692 79.63745117 386.88668823 C80.83349472 386.88661774 82.02953827 386.88654724 83.26182556 386.88647461 C84.30361938 386.884254 85.34541319 386.88203339 86.41877651 386.87974548 C89 387 89 387 92 388 C93.19856953 393.87930935 92.64834937 398.62064341 91.515625 404.4765625 C91.34420486 405.4112587 91.17278473 406.3459549 90.99617004 407.30897522 C90.42407207 410.4162512 89.83680872 413.52047164 89.25 416.625 C88.84440614 418.81723964 88.44005463 421.00970945 88.03686523 423.20239258 C87.16650573 427.92992497 86.29084091 432.65643185 85.41162109 437.38232422 C83.29280493 448.79146263 81.22266978 460.20943906 79.15908623 471.62867737 C78.55530492 474.9689477 77.94975142 478.30887491 77.33972168 481.64801025 C73.94395384 499.9168356 73.94395384 499.9168356 71.45483398 518.32348633 C71.00830004 520.95115761 70.42618528 522.75848136 69 525 C66.11357527 526.44321236 63.62154759 526.13135004 60.39501953 526.13803101 C59.70868502 526.14085229 59.0223505 526.14367357 58.31521797 526.14658034 C56.00440486 526.15494532 53.69363954 526.15626619 51.3828125 526.15771484 C49.73060979 526.16238155 48.07840836 526.16752488 46.4262085 526.17311096 C42.86305868 526.18440235 39.29991728 526.19283138 35.73675537 526.19923019 C30.10718651 526.20989092 24.47767816 526.2301293 18.84814453 526.25234985 C2.83824423 526.31434312 -13.17165245 526.36833869 -29.18164062 526.40136719 C-38.01969472 526.41968034 -46.85764752 526.44857234 -55.69562721 526.4893719 C-60.37602918 526.51049376 -65.05630322 526.52590649 -69.73675537 526.52817917 C-74.13626243 526.53031796 -78.53550292 526.54610796 -82.93492889 526.57256889 C-84.55308311 526.57979223 -86.17126953 526.58184827 -87.78943634 526.57846642 C-89.99161726 526.57459786 -92.19293568 526.58893935 -94.39501953 526.60800171 C-95.62946808 526.61131186 -96.86391663 526.614622 -98.13577271 526.61803246 C-99.55356522 526.80710639 -99.55356522 526.80710639 -101 527 C-103.30172964 530.45259447 -103.66982135 532.82297988 -104.36938477 536.90332031 C-104.49196278 537.60664395 -104.61454079 538.30996759 -104.74083328 539.03460407 C-105.14795893 541.38130603 -105.54471511 543.72963845 -105.94140625 546.078125 C-106.22717979 547.73894538 -106.51354333 549.39966434 -106.80046082 551.06028748 C-107.57014041 555.52687567 -108.33053539 559.99499807 -109.08885193 564.46352768 C-109.72202716 568.18849852 -110.36027786 571.9125926 -110.99844933 575.63671017 C-116.78095906 609.38949265 -122.38071893 643.17111143 -127.74586487 676.99285889 C-132.9821017 709.98995343 -138.55775706 742.89857759 -144.52641296 775.77017212 C-146.65128177 787.47473636 -148.75442068 799.1824517 -150.79296875 810.90234375 C-151.00117752 812.08905167 -151.20938629 813.27575958 -151.42390442 814.49842834 C-155.21919074 836.46710868 -155.06132154 855.85882701 -142.03515625 874.8671875 C-131.30376205 888.87815787 -116.16513586 897.42926074 -99 901 C-95.27890619 901.40611673 -91.61594398 901.47796347 -87.875 901.4375 C-86.87654053 901.42992676 -85.87808105 901.42235352 -84.84936523 901.41455078 C-75.80663927 901.21612787 -67.59313815 899.75040259 -59 897 C-58.0416626 896.70246826 -58.0416626 896.70246826 -57.06396484 896.39892578 C-48.1987335 893.575618 -39.94922841 889.62926831 -31.6875 885.375 C-30.77323242 884.90763428 -29.85896484 884.44026855 -28.91699219 883.95874023 C-28.06137695 883.50571533 -27.20576172 883.05269043 -26.32421875 882.5859375 C-25.1808606 881.98338135 -25.1808606 881.98338135 -24.0144043 881.36865234 C-20.8667165 879.23001002 -19.28882511 877.07372111 -18.2956543 873.38156128 C-18.14008057 872.38150055 -17.98450684 871.38143982 -17.82421875 870.35107422 C-17.63927353 869.2003241 -17.45432831 868.04957397 -17.26377869 866.86395264 C-17.07360672 865.60689514 -16.88343475 864.34983765 -16.6875 863.0546875 C-16.47665733 861.71803205 -16.26472122 860.38154868 -16.05177307 859.04522705 C-15.59564527 856.16997163 -15.14647687 853.29374725 -14.70266724 850.41656494 C-13.99224188 845.81336182 -13.26529988 841.21286573 -12.53491211 836.61279297 C-12.28494389 835.0376304 -12.03498975 833.46246559 -11.78504944 831.88729858 C-11.66032824 831.10141735 -11.53560703 830.31553612 -11.4071064 829.5058403 C-11.02459205 827.0920106 -10.64355399 824.677952 -10.26292419 822.26382446 C-7.88794466 807.21048938 -5.41321264 792.17464623 -2.89988327 777.14385986 C-2.5604005 775.11243685 -2.22164173 773.08089431 -1.88308716 771.04931641 C0.70201376 755.54063232 3.32822423 740.03951856 6.0078125 724.546875 C6.26233852 723.07441454 6.51685003 721.60195156 6.77134705 720.12948608 C6.89747155 719.39984461 7.02359606 718.67020313 7.15354252 717.91845131 C7.40851266 716.44342517 7.66347366 714.96839744 7.91842556 713.49336815 C8.04455258 712.76367128 8.17067961 712.03397442 8.30062866 711.28216553 C8.48949961 710.18942448 8.48949961 710.18942448 8.68218613 709.07460785 C8.93486039 707.61322469 9.18766961 706.15186485 9.44061661 704.69052887 C12.38667514 687.66912916 15.25435807 670.63967035 17.91015625 653.5703125 C18.02646708 652.82297726 18.1427779 652.07564201 18.2626133 651.30566025 C19.37955642 644.11927292 20.48604053 636.93136439 21.57344341 629.74044609 C21.87221543 627.7679526 22.17337647 625.79582145 22.47459412 623.82369995 C22.83938551 621.43339087 23.19984745 619.04241525 23.55506897 616.65066528 C25.14323672 606.26883715 25.14323672 606.26883715 27 602 C29.74299951 600.62850025 31.87896919 600.9078396 34.94995117 600.9465332 C36.2195015 600.96025467 37.48905182 600.97397614 38.79707336 600.9881134 C40.21237462 601.00881226 41.62767301 601.02970819 43.04296875 601.05078125 C44.52650037 601.06943994 46.01003631 601.08775756 47.49357605 601.10575867 C51.5419052 601.15663916 55.59009722 601.21493006 59.63829803 601.27508545 C62.19278623 601.31257759 64.74729479 601.3480997 67.30181885 601.38305664 C95.81961005 601.77586443 124.32718211 602.4347159 152.83710194 603.20013618 C174.34882569 603.77699452 195.85789403 604.24329555 217.375 604.5625 C219.90381018 604.60088858 222.43261881 604.6393794 224.96142578 604.67797852 C228.57121703 604.73293956 232.18100832 604.78789653 235.790802 604.84269714 C257.10191922 605.16758978 257.10191922 605.16758978 267.54669189 605.38375854 C269.32588141 605.41912863 271.10514312 605.45106128 272.88446045 605.47927856 C275.26180546 605.51743363 277.63858509 605.5675218 280.015625 605.62109375 C281.32821289 605.6461499 282.64080078 605.67120605 283.99316406 605.69702148 C287 606 287 606 289 608 C288.91656494 610.20547485 288.91656494 610.20547485 288.40722656 613.14306641 C288.20456177 614.32249817 288.00189697 615.50192993 287.79309082 616.71710205 C287.53080344 618.14511761 287.26626221 619.57272023 287 621 C286.85008102 621.81049553 286.70016205 622.62099106 286.54570007 623.45604706 C285.22697104 630.54780258 283.8566403 637.62938426 282.484375 644.7109375 C282.03224418 647.05328441 281.58029829 649.39566703 281.12852478 651.73808289 C279.92211776 657.98934108 278.71243922 664.23996193 277.50197983 670.49043655 C276.74650817 674.39303803 275.99205298 678.29583464 275.23794556 682.19869995 C269.3155715 712.84976608 263.35538847 743.49275933 257.28051376 774.1139679 C251.69112938 802.29040447 246.2948171 830.50246506 240.92712593 858.72189331 C237.39919133 877.26684608 233.860245 895.80899475 230.21875 914.33203125 C229.91243952 915.89087922 229.6061295 917.44972728 229.29981995 919.00857544 C228.84294875 921.33319923 228.38604551 923.65781672 227.92910862 925.9824276 C221.95860363 956.3596935 216.24951628 986.77711112 210.69763184 1017.23371124 C204.83749853 1049.380668 198.86062028 1081.49824591 192.5625 1113.5625 C192.39033085 1114.4392765 192.2181617 1115.31605301 192.0407753 1116.2193985 C189.92486811 1126.9915286 187.80009651 1137.76190182 185.67233753 1148.53169632 C182.07603805 1166.73659492 178.49546569 1184.94459056 174.9205246 1203.15369415 C174.31643705 1206.22995094 173.711867 1209.30611262 173.10723877 1212.38226318 C168.90515934 1233.7689322 164.74858085 1255.16262531 160.7578125 1276.58984375 C160.59218245 1277.47901867 160.42655239 1278.36819359 160.25590324 1279.2843132 C158.69683236 1287.66078258 157.14609384 1296.03873923 155.6120491 1304.41982937 C155.06702064 1307.39484464 154.51904482 1310.36931313 153.97071457 1313.34372139 C153.60250911 1315.34899235 153.23917588 1317.3551027 152.87612915 1319.36131287 C152.65653534 1320.55329788 152.43694153 1321.7452829 152.21069336 1322.97338867 C151.93025429 1324.51309578 151.93025429 1324.51309578 151.64414978 1326.08390808 C150.96767174 1329.14635135 150.04164132 1332.0437278 149 1335 C107.17144886 1336.09614826 107.17144886 1336.09614826 90.75 1336.125 C89.77579102 1336.12951172 88.80158203 1336.13402344 87.79785156 1336.13867188 C81.98077615 1336.12707252 76.18464252 1335.92640262 70.37552834 1335.64515781 C58.67670881 1335.08520796 46.99848339 1334.83172483 35.28738213 1334.76991272 C32.16396522 1334.75323842 29.04062475 1334.73108001 25.91725159 1334.7076416 C21.45048881 1334.67428376 16.98371964 1334.64246342 12.51693726 1334.61184692 C-20.24179296 1334.38227924 -52.99925255 1334.11259498 -85.74518585 1333.12391281 C-87.80757329 1333.06264636 -89.87003642 1333.00513836 -91.93255615 1332.94851685 C-95.67034074 1332.84273374 -99.40736875 1332.72332276 -103.14453125 1332.59765625 C-104.7586515 1332.55227722 -104.7586515 1332.55227722 -106.40538025 1332.50598145 C-107.37480057 1332.46928345 -108.34422089 1332.43258545 -109.34301758 1332.39477539 C-110.5945739 1332.35266685 -110.5945739 1332.35266685 -111.87141418 1332.30970764 C-114 1332 -114 1332 -117 1330 C-116.29745117 1320.12784929 -114.80579782 1310.38940926 -113.33984375 1300.609375 C-113.07138744 1298.80254829 -112.80322611 1296.99567772 -112.53533936 1295.18876648 C-111.96727708 1291.3607661 -111.39739738 1287.53304273 -110.82601929 1283.70553589 C-109.92939761 1277.69877707 -109.03707157 1271.69138548 -108.14575195 1265.68383789 C-107.99786822 1264.68715749 -107.84998449 1263.69047709 -107.69761944 1262.66359425 C-107.39988992 1260.65697155 -107.10217279 1258.65034702 -106.80446815 1256.64372063 C-106.3599354 1253.64830744 -105.91502157 1250.65295108 -105.47001648 1247.65760803 C-103.18222949 1232.25477794 -100.9215801 1216.84822126 -98.6875 1201.4375 C-98.53299377 1200.37258331 -98.37848755 1199.30766663 -98.21929932 1198.21047974 C-97.45641458 1192.9522639 -96.69423221 1187.69394676 -95.93261719 1182.43554688 C-93.41317535 1165.04422277 -90.88159982 1147.65465404 -88.34846497 1130.26531982 C-87.5032398 1124.46185344 -86.6603293 1118.65806116 -85.82054138 1112.85380554 C-85.36114535 1109.68165311 -84.89967541 1106.50980511 -84.43759155 1103.33804321 C-84.23386593 1101.93646741 -84.0310423 1100.53476011 -83.82925415 1099.13290405 C-82.85113508 1092.34005319 -81.8107854 1085.62326579 -80.24072266 1078.93896484 C-79.79868587 1076.82110955 -79.79868587 1076.82110955 -81.25 1074.4375 C-87.50874313 1071.16588427 -93.74207592 1071.88927985 -100.53735352 1072.97558594 C-112.63858768 1074.65394975 -124.87750085 1074.29199793 -137.06715465 1074.26865101 C-140.62627988 1074.26348604 -144.1853963 1074.26831427 -147.74452209 1074.27142334 C-153.75181949 1074.27504867 -159.75906756 1074.27031812 -165.76635742 1074.26074219 C-171.82140349 1074.25119721 -177.87635076 1074.25098942 -183.93139648 1074.26074219 C-213.07782508 1074.30641412 -242.20882889 1074.31596275 -271.3359375 1073.10546875 C-272.29025602 1073.06637138 -273.24457455 1073.02727402 -274.22781181 1072.98699188 C-341.33329815 1070.14410221 -341.33329815 1070.14410221 -357.6875 1061.5 C-358.33630127 1061.15888184 -358.98510254 1060.81776367 -359.65356445 1060.46630859 C-361.78215806 1059.33344083 -363.89159608 1058.16997592 -366 1057 C-366.77601563 1056.5762207 -367.55203125 1056.15244141 -368.3515625 1055.71582031 C-378.89925264 1049.92900478 -388.84417212 1043.83915197 -398 1036 C-398.54350098 1035.53480957 -399.08700195 1035.06961914 -399.64697266 1034.59033203 C-422.38559723 1014.86946755 -436.71825068 989.91693738 -441 960 C-441.23442593 955.59020574 -441.27057078 951.18169661 -441.29516602 946.76660156 C-441.30646202 945.37098878 -441.32653721 943.97541087 -441.35668945 942.58007812 C-441.64686633 929.07955842 -439.46967668 916.24080614 -437 903 C-436.68898766 901.29358621 -436.37864691 899.58704983 -436.0690918 897.88037109 C-435.47599857 894.63109443 -434.87421963 891.38360061 -434.26498413 888.13731384 C-431.00441762 870.71806575 -427.85303548 853.28188837 -424.82958984 835.82006836 C-424.69039627 835.01627617 -424.5512027 834.21248398 -424.40779114 833.38433444 C-423.82410173 830.01297985 -423.24064577 826.64158492 -422.65738666 823.27015585 C-416.68788217 788.77179013 -410.57306202 754.30148352 -404.30859375 719.85546875 C-404.12685254 718.85612777 -403.94511133 717.85678679 -403.75786281 716.82716274 C-401.5480748 704.67904188 -399.3330235 692.53188345 -397.11585468 680.38510776 C-395.22357431 670.01752725 -393.33503965 659.64926538 -391.44674385 649.28095853 C-388.9629925 635.64329974 -386.47869634 622.00574068 -383.99081868 608.36883396 C-383.20876182 604.08208554 -382.4270569 599.79527386 -381.64638424 595.50827312 C-380.32743369 588.26683741 -379.00651503 581.02581484 -377.67095727 573.78742069 C-377.10879925 570.73912791 -376.54892016 567.69041878 -375.98930943 564.64165747 C-375.7306456 563.23600888 -375.47087471 561.83056344 -375.2098645 560.42534864 C-373.56900842 551.63538325 -373.56900842 551.63538325 -372.40428162 542.77384949 C-372.04176784 539.38989049 -371.35539389 537.07222616 -370 534 C-370 533.01 -370 532.02 -370 531 C-437.98 530.67 -505.96 530.34 -576 530 C-576 529.01 -576 528.02 -576 527 C-573.25777111 525.88279564 -570.51552294 524.76563885 -567.77319336 523.64868164 C-565.34790673 522.66036949 -562.92294807 521.67125218 -560.49829102 520.68139648 C-554.37605471 518.18275814 -548.25006142 515.69526934 -542.109375 513.2421875 C-508.2474846 499.67666021 -475.18575775 483.86418502 -443.63964844 465.52490234 C-441.0030342 464.00175283 -438.35235808 462.50671286 -435.6953125 461.01953125 C-422.83037593 453.80011839 -410.36264575 446.04653639 -398 438 C-396.93007813 437.30648438 -395.86015625 436.61296875 -394.7578125 435.8984375 C-391.81671098 433.96327795 -388.90224356 431.99267764 -386 430 C-385.20045898 429.45150391 -384.40091797 428.90300781 -383.57714844 428.33789062 C-363.73165307 414.69278694 -344.42625582 400.41917932 -325.31347656 385.77001953 C-323.29403662 384.2249647 -321.26978388 382.68666586 -319.2421875 381.15234375 C-308.83169801 373.25415279 -298.93284855 364.83031656 -289.26171875 356.046875 C-287.19326125 354.1749031 -285.10439086 352.3313661 -283 350.5 C-279.97245233 347.86310364 -276.98062721 345.18983431 -274 342.5 C-271.01937279 339.81016569 -268.02754767 337.13689636 -265 334.5 C-260.28546101 330.38532283 -255.62736085 326.21249402 -251 322 C-250.51837402 321.56494141 -250.03674805 321.12988281 -249.54052734 320.68164062 C-239.9070594 311.95582935 -230.69760638 302.80466258 -221.5 293.625 C-220.88586243 293.01345062 -220.27172485 292.40190125 -219.63897705 291.77182007 C-213.72403131 285.87652564 -207.84588214 280.00811308 -202.42773438 273.64599609 C-200.24300043 271.1272758 -197.88564496 268.82951214 -195.5 266.5 C-191.81511037 262.86440864 -188.29264096 259.15387033 -184.93359375 255.21484375 C-182.90110794 252.88672364 -180.80615261 250.62857412 -178.69677734 248.37036133 C-173.66807582 242.98626073 -168.89127319 237.49473278 -164.27734375 231.74609375 C-161.78171437 228.73678422 -159.16195109 225.86100119 -156.5 223 C-152.3236877 218.50077695 -148.3548286 213.88249293 -144.50390625 209.1015625 C-142.00706265 206.00874844 -139.47808255 202.94491771 -136.94262695 199.88378906 C-130.66553881 192.29900935 -124.49617954 184.64329615 -118.45556641 176.86914062 C-116.8758191 174.84053523 -115.287855 172.81852574 -113.69921875 170.796875 C-105.24874266 160.02047094 -97.0584584 149.07200292 -89 138 C-88.18233154 136.87875732 -88.18233154 136.87875732 -87.34814453 135.73486328 C-72.3682428 115.17518439 -58.00812868 94.23026514 -44 73 C-43.46777832 72.1946582 -42.93555664 71.38931641 -42.38720703 70.55957031 C-19.68218987 36.17367184 -19.68218987 36.17367184 0 0 Z " fill="#FEFEFE" transform="translate(1367,1179)"/>
<path d="M0 0 C7.5142714 4.93760736 12.05188817 9.99056959 15.3125 18.375 C17.64699616 30.68416159 14.41983699 40.49481219 8 51 C9.06734375 51.07476563 10.1346875 51.14953125 11.234375 51.2265625 C31.43813254 52.90350883 50.02538153 60.23958204 69 67 C67.83791016 68.16015625 67.83791016 68.16015625 66.65234375 69.34375 C64.94588265 71.05272429 63.2484664 72.77080369 61.5625 74.5 C54.96970872 80.93199149 50.20145472 84.37166171 40.75366211 84.29223633 C35.01197947 83.68289205 29.61994701 81.56025699 24.1875 79.6875 C4.19461249 71.87317312 4.19461249 71.87317312 -15.9765625 74.91015625 C-18.16251079 76.08752994 -20.12430385 77.36895987 -22 79 C-22.14426066 85.63599021 -19.12866129 88.46936102 -14.67578125 93.12109375 C-11.6966316 96.32639782 -8.99608473 99.67244292 -6.3125 103.125 C-5.84690674 103.72272217 -5.38131348 104.32044434 -4.90161133 104.9362793 C-1.55229508 109.25464767 1.74914213 113.60694883 5 118 C3.54419693 121.56906558 1.71334134 123.24274055 -1.375 125.5 C-3.83180069 127.30767944 -5.91669501 128.90343421 -7.9140625 131.21875 C-10 133 -10 133 -12.859375 133.69921875 C-17.63654846 132.63564406 -19.41137959 129.62259002 -22.25 125.8125 C-22.8171875 125.08289062 -23.384375 124.35328125 -23.96875 123.6015625 C-25.66374379 121.4141043 -27.33368579 119.209345 -29 117 C-29.86827167 115.86732279 -30.7379211 114.73569946 -31.609375 113.60546875 C-33.21659012 111.5176648 -34.81938917 109.42645458 -36.41796875 107.33203125 C-40.92218477 101.47813208 -45.63385631 95.78764753 -50.30908203 90.0703125 C-53.13057553 86.61575506 -55.93938225 83.15090639 -58.75 79.6875 C-62.34348643 75.26197182 -65.9451164 70.8435384 -69.5625 66.4375 C-70.25214844 65.58800781 -70.94179687 64.73851563 -71.65234375 63.86328125 C-73.49874031 61.61135333 -75.36834214 59.3867599 -77.25390625 57.16796875 C-78.37797 55.82061762 -79.5016702 54.47296311 -80.625 53.125 C-81.17099854 52.49392334 -81.71699707 51.86284668 -82.27954102 51.21264648 C-85.9698243 46.73930454 -85.9698243 46.73930454 -86.109375 43.3203125 C-84.71050284 40.39450242 -83.09491161 38.85371021 -80.625 36.75 C-79.71363281 35.96753906 -78.80226563 35.18507813 -77.86328125 34.37890625 C-76.91839844 33.59386719 -75.97351562 32.80882813 -75 32 C-73.72189453 30.93072266 -73.72189453 30.93072266 -72.41796875 29.83984375 C-69.6300984 27.53682042 -66.81623848 25.26823331 -64 23 C-62.84329868 22.05133128 -61.68707058 21.10208533 -60.53125 20.15234375 C-54.04342621 14.85188484 -47.45140381 9.77092456 -40.5625 5 C-39.92481689 4.55543457 -39.28713379 4.11086914 -38.63012695 3.65283203 C-25.95818195 -4.97761171 -13.82191363 -8.84245201 0 0 Z M-44.4765625 33.92578125 C-46.63276676 35.6981411 -48.80236625 37.27197762 -51.125 38.8125 C-53.99607242 40.66919612 -53.99607242 40.66919612 -54.92578125 42.8125 C-55.04179153 46.23175036 -53.26065034 47.65286076 -51.0625 50.1875 C-49.82886719 51.62609375 -49.82886719 51.62609375 -48.5703125 53.09375 C-47.29800781 54.53234375 -47.29800781 54.53234375 -46 56 C-44.82050781 57.34578125 -44.82050781 57.34578125 -43.6171875 58.71875 C-41.75779625 60.82472719 -39.88642533 62.91824997 -38 65 C-33.70554982 63.59160505 -31.12953521 61.54145224 -27.875 58.4375 C-24.05118974 54.8517077 -20.18332657 51.49921934 -16.0625 48.25 C-9.1876892 42.69692855 -9.1876892 42.69692855 -6.5625 34.5 C-7.21210627 29.30314987 -8.66342202 26.20618013 -12.5625 22.6875 C-15.9692935 20.32895065 -18.37976583 19.46657111 -22.6015625 19.53515625 C-30.91566784 21.14652194 -38.20263065 28.63158947 -44.4765625 33.92578125 Z " fill="#FFFFFF" transform="translate(1867,2492)"/>
<path d="M0 0 C3.99664282 0.71154872 6.59346328 1.75667094 10 4 C11.010625 4.61875 12.02125 5.2375 13.0625 5.875 C17.26185291 8.91282976 20.10268208 11.83388806 21 17 C21.09774458 19.53273458 21.14190645 22.0305178 21.125 24.5625 C21.12157089 25.27705856 21.11814178 25.99161713 21.11460876 26.72782898 C21.07235997 31.28217526 20.9244851 35.80929594 20.63645935 40.35441589 C19.8614428 52.63243387 19.88618378 64.89000281 19.9375 77.1875 C19.94253211 79.31705622 19.94709195 81.44661362 19.95117188 83.57617188 C19.96202568 88.71747763 19.9791929 93.85872529 20 99 C27.78781162 87.35795856 27.78781162 87.35795856 35.4375 75.625 C36.35802623 74.19788655 37.27860064 72.77080418 38.19921875 71.34375 C38.6586084 70.63089844 39.11799805 69.91804688 39.59130859 69.18359375 C41.02298726 66.96436776 42.4581633 64.74744343 43.89453125 62.53125 C48.96418394 54.70908221 54.01536871 46.87673818 59 39 C63.9604067 39.46481117 66.53577322 40.79064189 70.3125 44 C71.17488281 44.721875 72.03726563 45.44375 72.92578125 46.1875 C75.986552 48.86207181 75.986552 48.86207181 76.3046875 52.125 C75.95444168 56.57940837 74.50415885 59.35336092 72.125 63 C71.51108398 63.97972778 71.51108398 63.97972778 70.88476562 64.97924805 C69.60928611 66.99948528 68.31003258 69.00202571 67 71 C66.43877441 71.85779053 66.43877441 71.85779053 65.86621094 72.73291016 C63.92940169 75.67793333 61.966938 78.60501907 59.99609375 81.52734375 C56.13045054 87.27400653 52.34963887 93.07644367 48.5625 98.875 C48.19218658 99.44192566 47.82187317 100.00885132 47.44033813 100.59295654 C44.95810955 104.3939262 42.47845018 108.19656521 40 112 C39.45633789 112.83418457 38.91267578 113.66836914 38.35253906 114.52783203 C31.13076838 125.61960807 24.04496906 136.79521512 17 148 C10.15801976 147.0170128 5.27033795 145.11898209 0.1875 140.375 C-6.38971603 131.39825242 -5.39653476 119.95698345 -5.29296875 109.3984375 C-5.28736336 107.70879495 -5.28309772 106.01914749 -5.28010559 104.32949829 C-5.26873096 99.91373894 -5.23932869 95.49828248 -5.20599365 91.0826416 C-5.17513227 86.56425065 -5.16156614 82.04581005 -5.14648438 77.52734375 C-5.11445081 68.68476382 -5.06334542 59.84240724 -5 51 C-14.31069562 65.20817427 -23.60595954 79.4213482 -32.703125 93.76757812 C-42.24513257 108.75517813 -42.24513257 108.75517813 -45.3125 109.75 C-48.67178776 108.81252435 -51.18729565 107.23596022 -54.06640625 105.29296875 C-56.11170117 103.87073797 -56.11170117 103.87073797 -58.9375 102.5 C-61 101 -61 101 -62.0625 98.75 C-61.93568161 93.1699909 -57.87326615 88.79916859 -54.75390625 84.40234375 C-51.15964804 79.27844482 -47.77438821 74.04398041 -44.4375 68.75 C-43.20447588 66.80335451 -41.97140157 64.8567408 -40.73828125 62.91015625 C-40.11646973 61.9267627 -39.4946582 60.94336914 -38.85400391 59.93017578 C-34.21061933 52.59150029 -29.54167514 45.2690141 -24.87548828 37.94482422 C-23.56325545 35.88440345 -22.2517958 33.82349014 -20.94091797 31.76220703 C-18.81700596 28.42338038 -16.69002994 25.08652216 -14.5625 21.75 C-13.58724365 20.21508911 -13.58724365 20.21508911 -12.59228516 18.64916992 C-8.54993638 12.31774899 -4.36149851 6.11602762 0 0 Z " fill="#FFFFFF" transform="translate(791,2542)"/>
<path d="M0 0 C9.55196362 4.74363882 14.04166474 18.64850785 18.53515625 27.73828125 C19.26592093 29.20541755 19.99722288 30.67228635 20.72903442 32.13890076 C22.63804012 35.96827441 24.53980594 39.80119787 26.44000244 43.63494873 C28.38656667 47.55896532 30.34007274 51.47952251 32.29296875 55.40039062 C36.11220805 63.07088101 39.9237933 70.74514179 43.73046875 78.421875 C46.60903988 74.1040183 46.83670447 70.06508775 47.16015625 64.96875 C47.23177979 63.88972412 47.30340332 62.81069824 47.37719727 61.69897461 C47.45252686 60.53503174 47.52785645 59.37108887 47.60546875 58.171875 C48.32384268 47.62799956 49.14748244 37.09847465 50.09405518 26.57263184 C50.22637554 25.10033945 50.35736294 23.62792663 50.48699951 22.15539551 C50.66971207 20.08629444 50.85744357 18.01771424 51.046875 15.94921875 C51.15459229 14.76062256 51.26230957 13.57202637 51.37329102 12.34741211 C51.73046875 9.421875 51.73046875 9.421875 52.73046875 6.421875 C55.65733787 4.95844044 58.28500488 5.2514324 61.54296875 5.234375 C62.76628906 5.22019531 63.98960938 5.20601562 65.25 5.19140625 C68.58350162 5.41214317 70.79136742 5.8735499 73.73046875 7.421875 C76.97036507 13.90166764 74.35125814 23.52387865 73.296875 30.3515625 C72.47919113 35.92730871 72.03738368 41.53749349 71.55126953 47.14990234 C71.0733508 52.65101301 70.56459252 58.14686858 70.0078125 63.640625 C68.49717069 78.59875334 67.23695849 93.52616462 66.37695312 108.53491211 C66.30541016 109.75831299 66.23386719 110.98171387 66.16015625 112.2421875 C66.10069824 113.31742676 66.04124023 114.39266602 65.97998047 115.50048828 C65.74667872 118.23208196 65.45729358 120.77741926 64.73046875 123.421875 C59.52648443 126.02386716 51.53143389 125.0908825 46.015625 123.7734375 C36.32516109 119.89725193 32.55563701 111.604395 28.60546875 102.484375 C23.07671889 90.10910889 17.11680748 77.97509907 11.04296875 65.859375 C10.36291779 64.4988652 10.36291779 64.4988652 9.66912842 63.11087036 C8.37584196 60.52438533 7.07934145 57.93954511 5.78125 55.35546875 C5.38699326 54.56812347 4.99273651 53.7807782 4.58653259 52.96957397 C2.99536499 49.46754314 2.99536499 49.46754314 0.73046875 46.421875 C-0.5027987 56.59141152 -1.4985443 66.76117707 -2.26953125 76.9765625 C-2.35187012 78.0609259 -2.43420898 79.14528931 -2.51904297 80.26251221 C-2.85817851 84.75680179 -3.19375869 89.25130253 -3.51953125 93.74658203 C-3.76209985 97.07384628 -4.01503313 100.40019248 -4.26953125 103.7265625 C-4.34042969 104.74313934 -4.41132812 105.75971619 -4.484375 106.80709839 C-4.55785156 107.74973541 -4.63132812 108.69237244 -4.70703125 109.66357422 C-4.79791016 110.90117996 -4.79791016 110.90117996 -4.890625 112.16378784 C-5.29453043 114.57085729 -6.07172092 116.30816561 -7.26953125 118.421875 C-10.5619018 118.31227782 -13.85310012 118.18158569 -17.14453125 118.046875 C-18.08167969 118.0159375 -19.01882813 117.985 -19.984375 117.953125 C-20.88027344 117.91445312 -21.77617188 117.87578125 -22.69921875 117.8359375 C-23.94034424 117.78880615 -23.94034424 117.78880615 -25.20654297 117.74072266 C-27.26953125 117.421875 -27.26953125 117.421875 -29.26953125 115.421875 C-29.5 113.36328125 -29.5 113.36328125 -29.45703125 110.984375 C-29.45058594 110.20191406 -29.44414063 109.41945313 -29.4375 108.61328125 C-29.26953125 106.421875 -29.26953125 106.421875 -28.26953125 103.421875 C-28.09228078 101.89799971 -27.95865924 100.36883644 -27.85229492 98.83837891 C-27.78504715 97.90117004 -27.71779938 96.96396118 -27.64851379 95.99835205 C-27.57887924 94.97538025 -27.50924469 93.95240845 -27.4375 92.8984375 C-27.27919824 90.67756704 -27.12082942 88.45670137 -26.96240234 86.23583984 C-26.83898468 84.47636017 -26.83898468 84.47636017 -26.71307373 82.68133545 C-25.39861553 64.0229224 -24.01190591 45.36963401 -22.39785767 26.73455811 C-22.22948663 24.78205452 -22.06408306 22.82929268 -21.90170288 20.87628174 C-21.6757893 18.16933474 -21.4391771 15.46354586 -21.19921875 12.7578125 C-21.13474045 11.96550232 -21.07026215 11.17319214 -21.00382996 10.35687256 C-20.36707857 3.45251888 -20.36707857 3.45251888 -18.26953125 0.421875 C-13.25212363 -2.08682881 -5.32947614 -1.35759461 0 0 Z " fill="#FFFFFF" transform="translate(1180.26953125,2692.578125)"/>
<path d="M0 0 C1.78515625 1.53125 1.78515625 1.53125 3 3 C3 5.5 3 5.5 2 8 C-0.25 9.5 -0.25 9.5 -3 11 C-5.30311279 13.24693931 -7.55466008 15.52285009 -9.75 17.875 C-13.47127318 19.73563659 -17.04036647 18.91064826 -21 18 C-22.155 17.484375 -23.31 16.96875 -24.5 16.4375 C-31.67710779 13.4897593 -38.13197013 14.72617282 -45.21875 17.54296875 C-54.44070995 22.37413597 -59.76307846 29.28923537 -63 39 C-64.39456838 54.63525705 -58.58756087 68.03391648 -48.84375 80 C-42.0596687 87.35900345 -33.75011902 92.09665246 -23.6875 92.625 C-13.49112455 92.26806737 -5.23362692 87.12556913 2.015625 80.20703125 C6.3459223 75.39085413 9.90815922 70.80114392 10.125 64.1875 C8.92096277 60.77606118 7.46662932 58.6257667 5 56 C-1.46220783 56.61313116 -5.51737326 59.71950641 -10.78125 63.28515625 C-14.29394728 65.15660541 -16.09343145 65.7246494 -20 65 C-21.86328125 63.1015625 -21.86328125 63.1015625 -23.3125 60.625 C-23.80363281 59.81289062 -24.29476563 59.00078125 -24.80078125 58.1640625 C-26.84570397 54.47387623 -27.51542999 52.29524991 -27 48 C-23.2228013 44.40370162 -18.86043091 42.25117884 -14.25 39.9375 C-7.011606 36.2422095 -0.25349328 32.0666106 6.37792969 27.36694336 C7.04211914 26.91327393 7.70630859 26.45960449 8.390625 25.9921875 C8.96844727 25.58339355 9.54626953 25.17459961 10.14160156 24.75341797 C12.87822647 23.64395601 14.25873763 23.9371377 17 25 C18.94116211 27.40161133 18.94116211 27.40161133 20.77734375 30.58203125 C21.11117569 31.15144943 21.44500763 31.72086761 21.78895569 32.30754089 C22.85403802 34.13399838 23.89540914 35.97284875 24.9375 37.8125 C25.63334369 39.00799024 26.33059713 40.2026611 27.02929688 41.39648438 C39.62936438 63.06503105 39.62936438 63.06503105 38.8125 68 C38.07421875 69.89453125 38.07421875 69.89453125 37 72 C36.57332031 72.89074219 36.14664062 73.78148438 35.70703125 74.69921875 C26.71682789 91.68071398 11.53381978 104.4751695 -6 112 C-6.76183594 112.3403125 -7.52367187 112.680625 -8.30859375 113.03125 C-21.03949926 117.79706558 -37.49278856 115.97034114 -49.75 110.8515625 C-66.55602794 102.59178172 -77.93534789 86.93273761 -85 70 C-90.13083903 54.68026077 -88.86932866 39.19122359 -82.9375 24.33984375 C-75.73483007 10.15958733 -61.685505 -0.57274815 -47 -6 C-46.15179687 -6.31839844 -45.30359375 -6.63679688 -44.4296875 -6.96484375 C-28.78765398 -12.03099491 -13.30401292 -9.37383663 0 0 Z " fill="#FFFFFF" transform="translate(1769,2577)"/>
<path d="M0 0 C12.63522098 11.86799694 18.34656655 29.80378403 19.02734375 46.81640625 C19.46073061 64.04641754 17.06215605 80.43763175 5.80859375 94.18359375 C-11.09960471 110.92371867 -39.02851353 110.13966552 -61.19140625 111.18359375 C-62.3815332 111.24627441 -63.57166016 111.30895508 -64.79785156 111.37353516 C-66.54340332 111.42840088 -66.54340332 111.42840088 -68.32421875 111.484375 C-69.37754395 111.52344971 -70.43086914 111.56252441 -71.51611328 111.6027832 C-74.19140625 111.18359375 -74.19140625 111.18359375 -75.81161499 109.53269958 C-77.51784826 106.62782358 -77.7133442 104.5357286 -77.94335938 101.17871094 C-78.07865051 99.35203888 -78.07865051 99.35203888 -78.2166748 97.48846436 C-78.30214893 96.15247522 -78.38747155 94.81647638 -78.47265625 93.48046875 C-78.57200753 92.08301828 -78.6726605 90.68565982 -78.77453613 89.28839111 C-79.0414399 85.58602873 -79.29283779 81.88278079 -79.54034424 78.17907715 C-79.93080889 72.37495817 -80.34430484 66.57240042 -80.75650024 60.76979065 C-80.85894417 59.32681661 -80.96097456 57.88381315 -81.06259155 56.44078064 C-81.84442098 45.36891871 -82.7566608 34.31338782 -83.78515625 23.26171875 C-83.88007607 22.22740849 -83.88007607 22.22740849 -83.97691345 21.17220306 C-84.15597825 19.23196429 -84.34055645 17.29223673 -84.52539062 15.35253906 C-84.62992554 14.25403625 -84.73446045 13.15553345 -84.84216309 12.02374268 C-85.1337843 9.65219254 -85.57134592 7.48335065 -86.19140625 5.18359375 C-86.4296875 2.9296875 -86.4296875 2.9296875 -86.50390625 0.62109375 C-86.54128906 -0.14332031 -86.57867188 -0.90773438 -86.6171875 -1.6953125 C-86.19140625 -3.81640625 -86.19140625 -3.81640625 -84.765625 -5.52734375 C-80.86516275 -7.48053425 -77.00200739 -7.57705107 -72.69140625 -7.87890625 C-70.78898237 -8.03286725 -68.88664013 -8.1878398 -66.984375 -8.34375 C-65.53490479 -8.45759033 -65.53490479 -8.45759033 -64.05615234 -8.57373047 C-60.52314406 -8.87301547 -57.00505985 -9.26813655 -53.48217773 -9.66699219 C-34.10900783 -11.81214468 -15.9149379 -13.19152606 0 0 Z M-60.19140625 13.18359375 C-60.14573517 13.73164673 -60.10006409 14.27969971 -60.05300903 14.84436035 C-57.7890625 42.01171875 -57.7890625 42.01171875 -57.52606201 45.17260742 C-57.34944529 47.28874576 -57.17174683 49.40479409 -56.99298096 51.52075195 C-56.53068892 57.00959253 -56.0892416 62.4989218 -55.68261719 67.9921875 C-55.59873749 69.08897827 -55.51485779 70.18576904 -55.42843628 71.3157959 C-55.26889478 73.40846811 -55.11584057 75.50164818 -54.97024536 77.59533691 C-54.89740326 78.53389526 -54.82456116 79.47245361 -54.74951172 80.43945312 C-54.68972137 81.26167358 -54.62993103 82.08389404 -54.56832886 82.93103027 C-54.15558274 85.39768206 -53.55846759 87.08904251 -52.19140625 89.18359375 C-48.59294182 90.38308189 -46.50912866 89.60338043 -42.9140625 88.71484375 C-39.84317282 88.11564576 -36.87817639 87.95613898 -33.75390625 87.80859375 C-25.06960222 87.22017128 -17.19914977 84.76350332 -11.19140625 78.18359375 C-3.12708025 62.93657224 -5.38485713 44.01307412 -10.140625 27.984375 C-12.94215938 20.57636512 -16.48232803 15.84518954 -23.609375 12.1953125 C-32.86543477 8.56850542 -51.0947123 8.63524677 -60.19140625 13.18359375 Z " fill="#FFFFFF" transform="translate(1371.19140625,2705.81640625)"/>
<path d="M0 0 C10.898584 8.034451 19.90202097 19.19604633 22.29296875 32.8515625 C24.43430931 54.80880061 18.2240269 74.15272655 4.5390625 91.375 C-4.45631578 101.74766108 -14.75816963 109.46950171 -28.78955078 110.55517578 C-39.92057173 111.1425703 -50.07059387 110.82591967 -60.4609375 106.375 C-61.3375 106.01277344 -62.2140625 105.65054688 -63.1171875 105.27734375 C-77.31643801 98.81317878 -87.69019706 87.76687693 -93.4609375 73.375 C-99.31997264 54.71859863 -95.61802173 37.54273195 -86.93359375 20.3515625 C-78.69954652 5.27841251 -66.93262641 -5.39678475 -50.4609375 -10.625 C-33.03811203 -14.98070637 -14.6327713 -9.66227438 0 0 Z M-58.4609375 23.375 C-67.19001096 35.16268581 -72.92048975 48.79567408 -71.0546875 63.6796875 C-69.16792912 72.24457749 -64.34917312 79.03938994 -57.4609375 84.375 C-50.11370969 88.60670884 -42.34838923 90.71346829 -33.91796875 88.796875 C-23.43577001 85.54428865 -14.98536722 77.80775761 -9.4609375 68.375 C-3.68728651 56.34522021 0.69996113 42.25237561 -3.4609375 28.9375 C-7.38353548 20.72910052 -13.60601078 15.55946394 -21.9375 12.23828125 C-24.86043183 11.23833089 -27.36751608 10.56833884 -30.4609375 10.375 C-31.71003906 10.2821875 -31.71003906 10.2821875 -32.984375 10.1875 C-44.71970627 9.67307452 -51.01247726 14.61368166 -58.4609375 23.375 Z " fill="#FFFFFF" transform="translate(960.4609375,2633.625)"/>
<path d="M0 0 C11.03456006 7.70337212 20.60140734 17.10235158 27 29 C27.65162109 30.15435547 27.65162109 30.15435547 28.31640625 31.33203125 C33.18486837 41.83230321 33.11444365 58.28400908 29.4375 69.1875 C28.6777889 70.81733005 27.86341631 72.42265438 27 74 C26.53722656 74.95390625 26.07445312 75.9078125 25.59765625 76.890625 C17.77593962 91.8073462 4.48610854 102.90881364 -11.375 108.5 C-26.8107488 112.63722594 -40.54186288 109.33811719 -54.25 101.75 C-70.27847348 91.78868024 -85.81285186 76.77189069 -90.59765625 57.8203125 C-92.13817072 47.02175478 -91.87569698 36.91952143 -87 27 C-86.59910156 26.11183594 -86.19820312 25.22367188 -85.78515625 24.30859375 C-81.84739885 16.28469968 -76.24074693 10.26844255 -70 4 C-69.15695312 3.10474609 -69.15695312 3.10474609 -68.296875 2.19140625 C-48.54272645 -16.99091168 -21.52906059 -13.27580155 0 0 Z M-61 24 C-66.1063507 30.46718021 -68.2912676 36.9014069 -68.0625 45.125 C-66.6781781 56.59736889 -59.68318428 67.5994131 -51 75 C-40.43755146 82.62141718 -28.21823527 87.72838737 -15 86 C-6.6274631 83.72028169 0.12184441 78.17142773 4.875 71 C8.66767927 64.33407887 9.93301637 57.59242071 9 50 C5.06657219 36.70233213 -4.79116069 26.49853659 -16.125 19.125 C-16.71087891 18.7434375 -17.29675781 18.361875 -17.90039062 17.96875 C-32.72086623 8.67880137 -49.3475929 11.50800898 -61 24 Z " fill="#FFFFFF" transform="translate(1981,2406)"/>
<path d="M0 0 C5.33813607 4.68113471 8.75158237 10.52567795 12.5 16.5 C13.55622559 18.16808716 13.55622559 18.16808716 14.63378906 19.86987305 C16.76600152 23.24027548 18.88411837 26.61932044 21 30 C21.60005859 30.95729004 22.20011719 31.91458008 22.81835938 32.90087891 C26.04460095 38.05673965 29.24383699 43.22840564 32.41796875 48.41650391 C33.51127613 50.20190186 34.60784109 51.98530762 35.70703125 53.76708984 C37.39586278 56.50667576 39.07424742 59.25239907 40.75 62 C41.26401367 62.83120361 41.77802734 63.66240723 42.30761719 64.51879883 C43.0138623 65.68511841 43.0138623 65.68511841 43.734375 66.875 C44.14913086 67.55304687 44.56388672 68.23109375 44.99121094 68.9296875 C46.13028856 71.26738794 46.59095362 73.44095236 47 76 C45.948125 76.598125 44.89625 77.19625 43.8125 77.8125 C41.57308622 79.08633659 39.37609806 80.38820565 37.1875 81.75 C35 83 35 83 33 83 C33 83.66 33 84.32 33 85 C31.1875 84.875 31.1875 84.875 29 84 C27.97548727 82.0124453 26.98025264 80.00975241 26 78 C24.58890004 75.82929025 23.15755761 73.69201156 21.6875 71.5625 C16.45516931 63.87468497 11.65808167 55.9401767 6.91088867 47.94555664 C3.91164706 42.94168713 0.90288006 38.34222866 -3 34 C-7.91441412 35.43652105 -12.00238358 37.54159615 -16.375 40.125 C-17.01566406 40.49753906 -17.65632812 40.87007812 -18.31640625 41.25390625 C-19.88048477 42.16434002 -21.44065534 43.08148191 -23 44 C-21.75441425 48.12125763 -20.25049683 51.53666901 -17.9453125 55.16796875 C-17.33574707 56.13524902 -16.72618164 57.1025293 -16.09814453 58.09912109 C-15.12143799 59.62786865 -15.12143799 59.62786865 -14.125 61.1875 C-13.45968262 62.24018066 -12.79436523 63.29286133 -12.10888672 64.37744141 C-10.07815524 67.58852647 -8.03935023 70.79438393 -6 74 C-4.23373123 76.78964934 -2.46961988 79.58064701 -0.70654297 82.37231445 C0.32917057 84.01126158 1.36654355 85.6491615 2.40576172 87.28588867 C2.86740723 88.01396729 3.32905273 88.7420459 3.8046875 89.4921875 C4.20671387 90.12495605 4.60874023 90.75772461 5.02294922 91.40966797 C6 93 6 93 7 95 C5.50518652 96.09047869 4.00381276 97.17196555 2.5 98.25 C1.6646875 98.85328125 0.829375 99.4565625 -0.03125 100.078125 C-3.55701704 102.36059524 -7.21434521 104.19267045 -11 106 C-12.42279651 103.76417691 -13.84558022 101.52834568 -15.26831055 99.29248047 C-16.51696107 97.33043265 -17.76582538 95.36852087 -19.01489258 93.40673828 C-22.32871107 88.20138373 -25.63895331 82.99382388 -28.94140625 77.78125 C-29.56966309 76.7907666 -30.19791992 75.8002832 -30.84521484 74.77978516 C-32.05388383 72.87404124 -33.26128428 70.96749207 -34.46728516 69.06005859 C-35.01819824 68.19203613 -35.56911133 67.32401367 -36.13671875 66.4296875 C-36.61842529 65.66897949 -37.10013184 64.90827148 -37.59643555 64.12451172 C-38.98838582 62.01757985 -40.46392899 60.00362025 -42 58 C-45.76150614 59.37335566 -48.91058023 61.11063112 -52.25 63.3125 C-57.05862498 66.43125541 -61.94927425 69.29380867 -67 72 C-65.52298849 76.212218 -63.33469265 79.67006337 -60.8125 83.3125 C-56.11098621 90.23439556 -51.62405402 97.28075284 -47.1875 104.375 C-46.55368408 105.38473877 -45.91986816 106.39447754 -45.2668457 107.43481445 C-35.11291973 123.71086191 -35.11291973 123.71086191 -34 129 C-36.24567681 130.48610965 -38.49609454 131.96396459 -40.75 133.4375 C-41.38421875 133.85837891 -42.0184375 134.27925781 -42.671875 134.71289062 C-43.290625 135.11572266 -43.909375 135.51855469 -44.546875 135.93359375 C-45.11245117 136.30540771 -45.67802734 136.67722168 -46.26074219 137.06030273 C-48.15049862 138.08131235 -49.90392138 138.56432082 -52 139 C-52.28230469 138.43796875 -52.56460938 137.8759375 -52.85546875 137.296875 C-56.20627125 130.89006201 -59.97266709 124.85315854 -63.9375 118.8125 C-73.58202308 104.11468368 -82.96430428 89.2433658 -91.9375 74.125 C-92.35668701 73.4235083 -92.77587402 72.7220166 -93.20776367 71.99926758 C-96 67.24156664 -96 67.24156664 -96 65 C-96.66 65 -97.32 65 -98 65 C-97.875 63.1875 -97.875 63.1875 -97 61 C-95.01114248 59.97801871 -93.0088977 58.98200307 -91 58 C-88.9718271 56.64575594 -86.96751712 55.25530695 -84.984375 53.8359375 C-78.82990398 49.49517632 -72.49264613 45.54436261 -66.02593994 41.68545532 C-62.95089103 39.84927162 -59.8854476 37.99720278 -56.8203125 36.14453125 C-55.92172012 35.60160683 -55.92172012 35.60160683 -55.00497437 35.04771423 C-48.3087185 30.99163362 -41.75774294 26.72875692 -35.2109375 22.43798828 C-30.70466734 19.50712132 -26.16236272 16.63239412 -21.625 13.75 C-20.73312988 13.18321533 -19.84125977 12.61643066 -18.92236328 12.0324707 C-17.18046856 10.92573934 -15.43844585 9.8192094 -13.69628906 8.71289062 C-9.12905429 5.81143108 -4.56458172 2.90563093 0 0 Z " fill="#FFFFFF" transform="translate(544,2267)"/>
<path d="M0 0 C3.73554859 1.24518286 5.22621061 3.22621061 8 6 C9.98768394 7.35162508 11.9866347 8.68693567 14 10 C16.77039383 11.93927568 16.95666567 12.77899491 17.625 16.1875 C16.73489187 21.61715961 13.8214937 24.23024799 10 28 C8.80310547 29.20269531 8.80310547 29.20269531 7.58203125 30.4296875 C5.87432949 32.12963872 4.15698017 33.81995849 2.4296875 35.5 C1.58664062 36.325 0.74359375 37.15 -0.125 38 C-0.97320313 38.825 -1.82140625 39.65 -2.6953125 40.5 C-5.46407514 43.50340354 -7.90480437 46.19128303 -8.125 50.375 C-5.47739766 56.5527388 0.8859954 60.86637565 5.88671875 65.16796875 C8.91432746 67.79264248 11.86678234 70.49980104 14.82421875 73.203125 C18.94649576 76.79305684 18.94649576 76.79305684 24.06640625 77.9765625 C26.78648984 76.60278291 28.08178406 74.78992401 29.9375 72.375 C34.29667062 66.84276354 38.84512717 61.51715102 43.48217773 56.21630859 C46.40230297 52.86972832 49.2560717 49.49468834 52 46 C56.44851869 47.43708952 59.17116163 49.69591507 62.5625 52.875 C63.95662109 54.17050781 63.95662109 54.17050781 65.37890625 55.4921875 C67.61673909 57.63330327 69.82294657 59.79733418 72 62 C71.45085937 62.62261719 71.45085937 62.62261719 70.890625 63.2578125 C67.98769138 66.56162743 65.09955352 69.87657087 62.25 73.2265625 C57.36202143 78.96975545 52.44627415 84.66189009 47.3125 90.1875 C43.10970691 94.71198101 39.18310786 99.40813737 35.3125 104.21875 C32.80027481 107.24021003 30.17578736 110.1242099 27.5 113 C23.27618067 117.54491988 19.28966459 122.23007358 15.3984375 127.0625 C12.05900878 131.15248437 8.61268175 135.1472677 5.16040039 139.14208984 C2.97478743 141.67572104 0.83378571 144.21154547 -1.234375 146.84375 C-3 149 -3 149 -4.9375 150.125 C-8.26574914 149.92328793 -9.70736875 147.31529851 -12 145 C-14.07700016 143.36081167 -16.18180204 141.75625564 -18.3125 140.1875 C-18.86228516 139.78080078 -19.41207031 139.37410156 -19.97851562 138.95507812 C-21.31625547 137.96631389 -22.65773623 136.98261415 -24 136 C-22.34816669 132.08279528 -19.69590228 129.10895775 -16.9375 125.9375 C-15.93798808 124.77413636 -14.93930205 123.61006269 -13.94140625 122.4453125 C-13.44398926 121.86555664 -12.94657227 121.28580078 -12.43408203 120.68847656 C-9.63240122 117.38980027 -6.93416083 114.00638617 -4.21875 110.63671875 C-1.17361994 107.01794623 2.11304344 103.64377108 5.4453125 100.2890625 C7.19148499 98.12838216 7.19148499 98.12838216 7.17578125 95.6015625 C5.38535669 91.64002511 2.39204953 89.45623856 -0.9375 86.75 C-2.30799606 85.60240318 -3.67778568 84.4539622 -5.046875 83.3046875 C-5.72041016 82.74491211 -6.39394531 82.18513672 -7.08789062 81.60839844 C-10.46264977 78.769671 -13.69663096 75.78201311 -16.94921875 72.8046875 C-17.62597656 72.20914063 -18.30273438 71.61359375 -19 71 C-19.66644531 70.40445313 -20.33289063 69.80890625 -21.01953125 69.1953125 C-22.89731824 67.78296386 -22.89731824 67.78296386 -24.94580078 68.24487305 C-27.30474661 69.11202534 -28.23108068 69.98363236 -29.84765625 71.88671875 C-30.36521484 72.48887207 -30.88277344 73.09102539 -31.41601562 73.71142578 C-31.95935547 74.36353027 -32.50269531 75.01563477 -33.0625 75.6875 C-33.63033203 76.35507324 -34.19816406 77.02264648 -34.78320312 77.71044922 C-39.09308483 82.81431972 -43.25994324 88.02934634 -47.30883789 93.3425293 C-54.40599448 102.59301987 -54.40599448 102.59301987 -58.9375 103.75 C-62.90252737 102.77897289 -63.93232748 101.04599702 -66.34375 97.890625 C-69.04195408 94.81059958 -72.44386103 92.95858415 -76 91 C-75.5401896 86.16502402 -74.48494056 83.85451139 -71.125 80.375 C-70.31546875 79.5190625 -69.5059375 78.663125 -68.671875 77.78125 C-67.34929688 76.40453125 -67.34929688 76.40453125 -66 75 C-64.11412909 72.96824596 -62.24477631 70.92155985 -60.375 68.875 C-59.90545898 68.36388672 -59.43591797 67.85277344 -58.95214844 67.32617188 C-55.82664166 63.92171966 -52.759643 60.47393299 -49.734375 56.98046875 C-47.72735462 54.68866845 -45.67597149 52.44003248 -43.625 50.1875 C-40.51471149 46.74621795 -37.53521688 43.23678702 -34.625 39.625 C-30.94428153 35.07219493 -27.07351352 30.76582589 -23.08862305 26.4831543 C-19.29873875 22.38599998 -15.78035192 18.10633409 -12.28125 13.7578125 C-8.35926166 9.01650467 -4.18127719 4.51298603 0 0 Z " fill="#FFFFFF" transform="translate(694,2461)"/>
<path d="M0 0 C7.1994077 4.34113539 14.25233773 8.88280773 21.28149414 13.49389648 C29.10574497 18.61632094 37.03494658 23.56202769 45.00683594 28.45117188 C72.61922998 45.52886802 72.61922998 45.52886802 77.0703125 59.6640625 C80.06597619 75.03070774 74.80111476 90.04389435 66.4921875 102.828125 C59.52708747 112.11053619 50.5011116 119.87105464 39.4921875 123.828125 C35.765625 124.296875 35.765625 124.296875 31.8671875 124.328125 C30.59617187 124.3590625 29.32515625 124.39 28.015625 124.421875 C16.77681888 123.55505564 6.71634409 116.91820811 -2.5703125 111.078125 C-3.77395472 110.3323595 -4.97831732 109.58775557 -6.18334961 108.84423828 C-8.68874679 107.29729076 -11.19099597 105.74542313 -13.69140625 104.19042969 C-17.4997291 101.82707241 -21.3285855 99.49865438 -25.1640625 97.1796875 C-25.7882457 96.8021936 -26.41242889 96.42469971 -27.05552673 96.0357666 C-28.89360313 94.92457876 -30.73194134 93.81382509 -32.5703125 92.703125 C-36.89134055 90.09194347 -41.20198018 87.46429303 -45.5078125 84.828125 C-47.08151611 83.88501465 -47.08151611 83.88501465 -48.68701172 82.92285156 C-49.67846191 82.31666992 -50.66991211 81.71048828 -51.69140625 81.0859375 C-52.5723999 80.55371582 -53.45339355 80.02149414 -54.36108398 79.47314453 C-56.65254355 77.71721885 -57.61745775 76.56086328 -58.5078125 73.828125 C-57.02143153 69.8921882 -54.69097961 66.4166087 -52.5078125 62.828125 C-52.16105469 62.16296875 -51.81429688 61.4978125 -51.45703125 60.8125 C-49.83882878 57.87549816 -48.51705224 56.83227345 -45.4453125 55.453125 C-41.05966811 55.87080542 -40.08972819 56.6402719 -36.71875 59.28125 C-30.50249015 63.94357357 -23.96532184 67.85048047 -17.25469971 71.75445557 C-13.72818772 73.8070672 -10.21300503 75.87882249 -6.69921875 77.953125 C-6.00165466 78.36482941 -5.30409058 78.77653381 -4.58538818 79.20071411 C4.3361568 84.48626178 13.06214685 90.07598969 21.75341797 95.73095703 C26.41560484 98.67280873 31.10512036 98.35041683 36.4921875 97.828125 C43.65637974 95.58424592 48.37353716 89.19673498 51.8046875 82.828125 C54.11127871 77.7982055 55.0151092 73.78036602 53.5546875 68.328125 C49.42869353 60.01868796 39.53624176 55.05118482 31.9921875 50.328125 C30.90429932 49.63960449 29.81641113 48.95108398 28.69555664 48.24169922 C25.86039461 46.44830657 23.01970365 44.66390897 20.17657471 42.88317871 C18.53224067 41.8532132 16.88891026 40.82164595 15.24560547 39.79003906 C9.23861144 36.02025395 3.22341546 32.26383671 -2.79736328 28.51611328 C-6.87069076 25.97936439 -10.93926497 23.43503025 -15.0078125 20.890625 C-16.28903657 20.08980227 -17.57028338 19.2890159 -18.8515625 18.48828125 C-20.16640625 17.66650391 -20.16640625 17.66650391 -21.5078125 16.828125 C-20.9268995 12.87508286 -19.71982759 10.09841821 -17.6328125 6.703125 C-17.11976562 5.85492187 -16.60671875 5.00671875 -16.078125 4.1328125 C-11.7063094 -2.28353378 -7.20300607 -3.36589069 0 0 Z " fill="#FFFFFF" transform="translate(2019.5078125,2278.171875)"/>
<path d="M0 0 C2.58984375 2.07421875 2.58984375 2.07421875 5 5 C5.4345752 5.5151416 5.86915039 6.0302832 6.31689453 6.56103516 C7.7607846 8.29011275 9.16466061 10.04601245 10.5625 11.8125 C11.08279785 12.46629639 11.6030957 13.12009277 12.13916016 13.79370117 C16.30611448 19.05850939 20.3455246 24.41285164 24.35327148 29.79931641 C29.9233495 37.27364058 35.67138883 44.607286 41.40722656 51.95458984 C43.61772877 54.79327584 45.80982648 57.64559353 48 60.5 C52.57277675 66.45664339 57.18354614 72.38321723 61.79736328 78.30810547 C66.89094809 84.85219061 71.95394571 91.41920108 77 98 C75.24530848 101.50938304 71.2685528 102.04188542 67.72094727 103.30053711 C62.24760055 105.11990334 56.70194274 106.34436048 51 105 C46.44410852 102.12073318 44.03848039 98.37960133 41.3125 93.875 C38.50162976 89.17840899 38.50162976 89.17840899 35 85 C29.04799046 85.38952942 23.44618256 87.18911371 17.75 88.875 C12.01998822 90.55816614 6.31364502 92.18851012 0.5 93.5625 C-3.98474821 94.7655515 -6.21061878 96.28082504 -9 100 C-10.47287751 104.41863252 -10.63490741 109.03636499 -10.98632812 113.6640625 C-11.46993395 118.56003652 -12.28178152 121.48507036 -16 125 C-18.2265625 126.2578125 -18.2265625 126.2578125 -20.625 127.125 C-21.49125 127.44210938 -22.3575 127.75921875 -23.25 128.0859375 C-27.4734414 129.48975183 -31.71925777 130.78359723 -36 132 C-36.21909095 121.506806 -35.55337905 111.28980301 -34.5390625 100.859375 C-34.38638544 99.24103673 -34.23424658 97.62264762 -34.08261108 96.00421143 C-33.76537793 92.63214135 -33.44401101 89.26050291 -33.11914062 85.88916016 C-32.70805211 81.62306499 -32.3038231 77.35635887 -31.90232277 73.08935165 C-31.51261845 68.94998221 -31.11984873 64.81090545 -30.7265625 60.671875 C-30.65438129 59.91058037 -30.58220009 59.14928574 -30.50783157 58.36492157 C-29.63841712 49.22395693 -28.70484394 40.09393935 -27.64731789 30.97259903 C-26.97792562 25.11959424 -26.65246482 19.31488036 -26.609375 13.42773438 C-26.44034255 8.50231669 -26.44034255 8.50231669 -24.41796875 6.1953125 C-21.25378814 4.63111336 -18.03461664 3.41051349 -14.6875 2.3125 C-13.7294043 1.97508789 -13.7294043 1.97508789 -12.75195312 1.63085938 C-8.36899885 0.16987462 -4.59520313 -0.63029164 0 0 Z M-6 30 C-6.29071263 34.03402433 -6.57521245 38.06843917 -6.85449219 42.10327148 C-6.94988045 43.46959627 -7.04683004 44.83581315 -7.14550781 46.2019043 C-7.79063042 55.1513348 -8.13788076 64.02721808 -8 73 C-4.54662128 74.15112624 -3.43929492 73.80121237 0 72.85546875 C0.969375 72.59056641 1.93875 72.32566406 2.9375 72.05273438 C3.948125 71.76720703 4.95875 71.48167969 6 71.1875 C7.010625 70.91357422 8.02125 70.63964844 9.0625 70.35742188 C14.79772908 68.7974635 14.79772908 68.7974635 20 66 C18.55979869 61.77181539 16.46678342 58.79229021 13.6875 55.3125 C8.64991155 48.93560165 3.90263718 42.37109518 -0.79614258 35.74145508 C-1.32876709 34.99532959 -1.8613916 34.2492041 -2.41015625 33.48046875 C-2.88590088 32.80910889 -3.36164551 32.13774902 -3.85180664 31.44604492 C-4.23071045 30.9688501 -4.60961426 30.49165527 -5 30 C-5.33 30 -5.66 30 -6 30 Z " fill="#FFFFFF" transform="translate(1535,2661)"/>
<path d="M0 0 C7.56710502 5.4147442 13.16193116 12.04295963 15.25 21.25 C16.73827289 33.28559814 14.1083151 42.37856895 9.25 53.25 C8.39076938 55.19960774 7.53365977 57.15004356 6.68212891 59.10302734 C5.92223089 60.83015186 5.13768024 62.54636952 4.3515625 64.26171875 C3.24099746 67.27442179 2.59524241 69.09964994 3.25 72.25 C6.43011214 74.3983362 9.77252336 76.02564743 13.26953125 77.58984375 C14.20990234 78.01330078 15.15027344 78.43675781 16.11914062 78.87304688 C17.09044922 79.30681641 18.06175781 79.74058594 19.0625 80.1875 C37.40328467 88.40328467 37.40328467 88.40328467 39.25 90.25 C38.9590529 97.08725677 36.22160757 103.55211755 31.92736816 108.89588928 C30.25 110.25 30.25 110.25 28.26843262 110.4438324 C22.76429282 109.71168929 18.25548159 108.28471278 13.28125 105.84765625 C12.16840637 105.32356171 12.16840637 105.32356171 11.03308105 104.78887939 C9.43413334 104.03462212 7.83788195 103.27462691 6.24414062 102.50942993 C1.93624813 100.44208641 -2.39223066 98.41861947 -6.71875 96.390625 C-7.61698486 95.96836136 -8.51521973 95.54609772 -9.44067383 95.11103821 C-21.13646374 89.63132915 -32.98629321 84.5032252 -44.83007812 79.35375977 C-52.35161838 76.08066811 -59.86265292 72.78929063 -67.3125 69.35546875 C-68.51003906 68.8039917 -69.70757813 68.25251465 -70.94140625 67.68432617 C-73.75 66.25 -73.75 66.25 -75.75 64.25 C-75.44331593 59.22880749 -74.13630612 55.39857985 -71.90625 50.92578125 C-71.32375488 49.74145508 -70.74125977 48.55712891 -70.14111328 47.33691406 C-69.51099442 46.0786497 -68.88061818 44.82051419 -68.25 43.5625 C-66.96123247 40.96204624 -65.67899442 38.35841156 -64.3984375 35.75390625 C-64.08139862 35.11093597 -63.76435974 34.4679657 -63.43771362 33.80551147 C-61.13254145 29.10426124 -59.00913732 24.3430835 -56.95507812 19.52636719 C-52.04064561 8.03121626 -46.74441007 -0.69972208 -34.75 -5.75 C-22.92238829 -9.67565271 -10.21211106 -6.29231086 0 0 Z M-37.94140625 27.5625 C-42.43191933 34.23522786 -45.92765386 42.43133899 -47.75 50.25 C-42.23332522 54.33501177 -36.17198618 56.83231127 -29.875 59.5 C-28.27011719 60.18835937 -28.27011719 60.18835937 -26.6328125 60.890625 C-24.00744565 62.01578222 -21.37985557 63.13538454 -18.75 64.25 C-17.10131374 60.81386118 -15.45654396 57.37586207 -13.8125 53.9375 C-13.34392578 52.96103516 -12.87535156 51.98457031 -12.39257812 50.97851562 C-11.94462891 50.04072266 -11.49667969 49.10292969 -11.03515625 48.13671875 C-10.62144775 47.27264404 -10.20773926 46.40856934 -9.78149414 45.51831055 C-7.32978469 40.1268709 -6.62501402 34.73501091 -8.46875 29.0234375 C-10.47477065 24.70402206 -12.66832746 21.86645676 -16.75 19.25 C-26.19052489 16.10315837 -31.9938762 20.56852257 -37.94140625 27.5625 Z " fill="#FFFFFF" transform="translate(2105.75,2178.75)"/>
<path d="M0 0 C12.36896133 9.62229793 22.26796027 22.21194382 24.69140625 38.09375 C26.07557259 50.06065647 22.01596317 61.06258801 15.69140625 71.09375 C12.89724072 69.57691728 10.72933696 68.13276444 8.50390625 65.84375 C4.61166448 62.03800249 0.19601381 59.12889335 -4.30859375 56.09375 C-3.99609375 54.15625 -3.99609375 54.15625 -3.30859375 52.09375 C-2.31859375 51.76375 -1.32859375 51.43375 -0.30859375 51.09375 C0.52514215 36.30584191 0.52514215 36.30584191 -5.78125 23.296875 C-11.1537812 18.16566317 -18.38471824 14.98724164 -25.80859375 14.59375 C-39.41217052 15.33359365 -52.26449298 25.69467599 -61.30859375 35.09375 C-67.43152633 42.33100939 -71.62026497 50.2921217 -72.74609375 59.78125 C-71.81333445 66.84357043 -69.405293 71.99705075 -64.30859375 77.09375 C-58.04644209 81.70928011 -53.18211958 83.5936564 -45.30859375 83.09375 C-41.597031 82.23683112 -37.96043874 81.1730855 -34.30859375 80.09375 C-32.97725134 79.75255169 -31.64464216 79.41602866 -30.30859375 79.09375 C-22.30859375 97.78149704 -22.30859375 97.78149704 -22.30859375 102.09375 C-24.34736324 102.91349263 -26.3897545 103.7242307 -28.43359375 104.53125 C-29.57054687 104.98371094 -30.7075 105.43617188 -31.87890625 105.90234375 C-43.65178985 109.99201288 -55.17852913 108.04922015 -66.37109375 103.03125 C-80.7207057 95.30276125 -89.09510516 82.13100221 -94.30859375 67.09375 C-97.44708037 54.73970712 -95.61323116 41.49426942 -89.3203125 30.48828125 C-77.80009286 11.43727493 -61.33227539 -2.24086442 -39.62109375 -7.84375 C-25.16074063 -10.66872741 -12.25836875 -8.42205247 0 0 Z " fill="#FFFFFF" transform="translate(633.30859375,2391.90625)"/>
<path d="M0 0 C4.4768952 5.04714611 6.57454507 11.77148788 9.125 17.9375 C14.37089166 30.41147733 19.93681441 42.72182252 25.625 55 C26.02607971 55.86664276 26.42715942 56.73328552 26.84039307 57.62619019 C30.88432208 66.5351987 30.88432208 66.5351987 35.20458984 75.30859375 C36.49003125 78.04203085 36.43207999 80.03716578 36 83 C32.20584765 87.30003934 26.39911256 89.34953957 21 91 C19.68 91 18.36 91 17 91 C16.70867187 90.15179687 16.41734375 89.30359375 16.1171875 88.4296875 C12.09387961 74.26394474 12.09387961 74.26394474 5 62 C-1.99918404 62.24235402 -7.66783924 65.42863245 -13.875 68.4375 C-16.35623863 69.61609257 -18.83869951 70.79145742 -21.32421875 71.9609375 C-21.99304581 72.27605789 -22.66187286 72.59117828 -23.35096741 72.91584778 C-32.71829826 77.30541117 -42.2084841 81.4214004 -51.6875 85.5625 C-53.02732941 86.14824295 -53.02732941 86.14824295 -54.39422607 86.74581909 C-61.13670699 89.69314457 -61.13670699 89.69314457 -64.4445343 91.134552 C-65.17528671 91.4531015 -65.90603912 91.771651 -66.65893555 92.09985352 C-67.36819183 92.40811066 -68.07744812 92.7163678 -68.80819702 93.03396606 C-70.3589104 93.7174407 -71.90366468 94.41451111 -73.44400024 95.12106323 C-74.24212128 95.48579742 -75.04024231 95.85053162 -75.86254883 96.22631836 C-76.58235428 96.5597374 -77.30215973 96.89315643 -78.04377747 97.23667908 C-80.44112659 98.17212825 -82.4520071 98.32877328 -85 98 C-86.54429765 95.28348686 -88.05601606 92.55013724 -89.5625 89.8125 C-90.00013672 89.04357422 -90.43777344 88.27464844 -90.88867188 87.48242188 C-91.29794922 86.73154297 -91.70722656 85.98066406 -92.12890625 85.20703125 C-92.70233765 84.17799683 -92.70233765 84.17799683 -93.28735352 83.12817383 C-94.27534825 80.17772842 -94.25778061 78.87270181 -93 76 C-90.48095222 74.44856179 -88.22540526 73.30903213 -85.5234375 72.171875 C-84.74210449 71.82522293 -83.96077148 71.47857086 -83.15576172 71.12141418 C-80.56974018 69.97942898 -77.97281704 68.86485973 -75.375 67.75 C-73.57819958 66.9625407 -71.78214626 66.17337467 -69.98681641 65.38256836 C-65.28519561 63.31708348 -60.5739649 61.27454217 -55.85986328 59.23773193 C-51.19326872 57.21805737 -46.53436948 55.18080514 -41.875 53.14453125 C-36.70932002 50.8876387 -31.54274067 48.63306881 -26.36865234 46.39550781 C-25.58111572 46.05444504 -24.7935791 45.71338226 -23.98217773 45.36198425 C-22.52348324 44.73060654 -21.06422044 44.1005393 -19.60424805 43.47212219 C-17.73068471 42.6606196 -15.86507207 41.83083223 -14 41 C-12.30738037 40.27671509 -12.30738037 40.27671509 -10.58056641 39.53881836 C-7.92000197 38.2613338 -7.92000197 38.2613338 -7.01464844 36.08129883 C-6.99645958 33.49696512 -7.61572798 32.01202183 -8.765625 29.69921875 C-9.16136719 28.88646484 -9.55710937 28.07371094 -9.96484375 27.23632812 C-10.60099609 25.9746582 -10.60099609 25.9746582 -11.25 24.6875 C-12.06883367 23.02529347 -12.88656092 21.3625414 -13.703125 19.69921875 C-14.09564453 18.90177246 -14.48816406 18.10432617 -14.89257812 17.28271484 C-19 8.81613757 -19 8.81613757 -19 5 C-16.96807164 3.95991798 -14.92394802 2.9436389 -12.875 1.9375 C-11.73804688 1.36902344 -10.60109375 0.80054687 -9.4296875 0.21484375 C-5.57662133 -1.1499667 -3.82301909 -1.43495592 0 0 Z " fill="#FFFFFF" transform="translate(496,2163)"/>
<path d="M0 0 C4.02218141 19.03522164 7.87290616 38.10430817 11.66859627 57.185812 C12.58698834 61.80238119 13.50884585 66.41819934 14.4387207 71.0324707 C15.35335659 75.57144672 16.25953456 80.11203559 17.1597805 84.6538868 C17.50010585 86.3635621 17.84334559 88.0726602 18.18969154 89.78112602 C18.67142783 92.16041449 19.14222603 94.54163336 19.6105957 96.92358398 C19.75235229 97.61093124 19.89410889 98.2982785 20.04016113 99.00645447 C21.01750305 104.06370927 21.1119464 108.84958063 21 114 C16.37300714 116.16743046 11.689364 116.85123098 6.6875 117.625 C5.43356445 117.82609375 5.43356445 117.82609375 4.15429688 118.03125 C2.10368682 118.35934761 0.05194879 118.68038181 -2 119 C-4.72660475 105.61396908 -7.44786098 92.22686297 -10.16236782 78.83837318 C-11.42310016 72.62104411 -12.6856448 66.40409477 -13.95239258 60.18798828 C-15.17568762 54.18476466 -16.39414174 48.18057676 -17.60930061 42.17570114 C-18.0728473 39.88933982 -18.53811257 37.60332622 -19.00515556 35.31767654 C-19.66095746 32.1067419 -20.31053784 28.89460506 -20.95874023 25.68212891 C-21.15151047 24.74560486 -21.3442807 23.80908081 -21.54289246 22.84417725 C-24.11493445 10.00622282 -24.11493445 10.00622282 -24 5 C-22 2 -22 2 -18.26171875 1.015625 C-16.739279 0.74703738 -15.21433536 0.49235482 -13.6875 0.25 C-12.92759766 0.11207031 -12.16769531 -0.02585937 -11.38476562 -0.16796875 C-7.22737081 -0.86869385 -4.1541037 -0.97913957 0 0 Z " fill="#FFFFFF" transform="translate(1439,2684)"/>
<path d="M0 0 C5.85642522 0.07320532 13.96668995 1.02918995 18.1875 5.25 C19.97818151 16.31519101 16.39716208 28.41702168 14.3203125 39.24609375 C13.92073575 41.36915739 13.5219762 43.49237499 13.12399292 45.61573792 C12.29168573 50.04387258 11.45217387 54.47055638 10.60693359 58.89624023 C9.52438531 64.56562729 8.45601985 70.23757023 7.39248848 75.91055202 C6.57138571 80.28563652 5.74488387 84.65968639 4.91653061 89.0334034 C4.5206383 91.12514818 4.12594713 93.21712067 3.73248672 95.30932426 C3.18246675 98.22733093 2.62568506 101.14396464 2.06689453 104.06030273 C1.90577179 104.92114471 1.74464905 105.78198669 1.5786438 106.66891479 C0.79248068 110.73365847 -0.07565614 114.46031227 -1.8125 118.25 C-17.57633764 117.40867159 -17.57633764 117.40867159 -23.8125 115.25 C-25.99042245 111.98311633 -26.05010957 111.81180757 -25.35188293 108.2562561 C-25.19909882 107.44633209 -25.0463147 106.63640808 -24.88890076 105.80194092 C-24.70875931 104.91677795 -24.52861786 104.03161499 -24.34301758 103.11962891 C-24.16281067 102.18422272 -23.98260376 101.24881653 -23.79693604 100.2850647 C-23.19553933 97.17977823 -22.57643377 94.07830335 -21.95703125 90.9765625 C-21.53435473 88.81500841 -21.11271303 86.65325174 -20.69206238 84.49130249 C-19.5781743 78.78286608 -18.44898515 73.07755508 -17.3170166 67.37268066 C-16.40207504 62.74826358 -15.49791434 58.12177178 -14.59439564 53.49511147 C-13.51061854 47.94653925 -12.42202467 42.39891652 -11.33203125 36.8515625 C-11.1266102 35.80560535 -10.92118916 34.75964821 -10.70954323 33.68199539 C-4.15339832 0.36919096 -4.15339832 0.36919096 0 0 Z " fill="#FFFFFF" transform="translate(1106.8125,2679.75)"/>
</svg>
