<svg version="1.1" id="Layer_1" xmlns="http://www.w3.org/2000/svg" xmlns:xlink="http://www.w3.org/1999/xlink" x="0px" y="0px"
	 width="100%" viewBox="0 0 866 288" enable-background="new 0 0 866 288" xml:space="preserve">
<path fill="#000000" opacity="1.000000" stroke="none" 
	d="
M610.000000,289.000000 
	C406.666656,289.000000 203.833328,289.000000 1.000000,289.000000 
	C1.000000,193.000000 1.000000,97.000000 1.000000,1.000000 
	C289.666656,1.000000 578.333313,1.000000 867.000000,1.000000 
	C867.000000,97.000000 867.000000,193.000000 867.000000,289.000000 
	C781.500000,289.000000 696.000000,289.000000 610.000000,289.000000 
M109.010483,137.998810 
	C109.010483,137.998810 109.044693,138.069336 109.842514,137.684341 
	C109.972649,129.452744 110.102783,121.221153 110.867287,112.739014 
	C112.903992,111.499878 115.141953,110.496872 116.933403,108.969994 
	C120.164673,106.215950 122.679077,108.716087 123.755226,110.657150 
	C124.869812,112.667564 125.030685,117.500435 124.028023,118.014244 
	C118.058784,121.073219 118.774162,126.039001 119.031990,131.808594 
	C119.598549,132.836090 120.165115,133.863602 120.934113,135.258240 
	C119.000221,135.717178 117.517227,136.069122 116.034241,136.421066 
	C115.820358,136.858109 115.606476,137.295151 115.392601,137.732193 
	C116.898193,138.821487 118.403793,139.910797 119.271431,141.244034 
	C114.895836,144.299881 110.520233,147.355728 106.044273,150.481659 
	C110.933418,154.329453 115.625839,158.332932 121.826889,152.854599 
	C125.872368,155.482803 129.809647,158.040710 133.981308,160.750900 
	C130.806320,162.610275 127.857468,164.283157 124.963127,166.045547 
	C121.121590,168.384689 117.624763,168.850372 113.846519,165.525436 
	C111.890472,163.804077 109.044945,163.093460 106.601280,161.926208 
	C108.222145,166.372330 104.470261,171.946411 109.757835,175.219879 
	C112.365669,176.834366 114.959335,178.491989 117.683952,179.886826 
	C118.664833,180.388977 120.299103,180.688934 121.142899,180.211365 
	C126.849915,176.981262 132.424942,173.517960 138.758331,170.008621 
	C140.871216,168.703583 142.984100,167.398529 144.988617,166.027817 
	C144.988617,166.027817 145.087708,166.109146 145.861450,166.044647 
	C149.256195,165.209412 150.198044,163.060593 150.100998,159.633087 
	C149.990433,155.727890 150.685806,151.799881 151.716507,147.826843 
	C155.143494,145.289337 158.570465,142.751816 162.598267,140.032303 
	C163.067535,139.757156 163.536789,139.482010 164.769257,138.736786 
	C164.845779,128.953491 164.946396,119.170204 164.955948,109.386841 
	C164.956772,108.548248 164.352905,107.709061 163.872238,106.316223 
	C163.517487,106.260269 163.162720,106.204315 162.216125,105.787491 
	C159.518204,104.176018 156.820282,102.564545 153.957611,100.425072 
	C153.638504,100.336372 153.319382,100.247665 152.459671,99.972847 
	C152.017685,99.630981 151.575684,99.289108 150.960495,98.424438 
	C150.652908,98.245941 150.345322,98.067444 149.954620,97.443344 
	C149.954620,97.443344 149.811417,97.013275 149.976349,96.091812 
	C149.978119,92.367050 150.118973,88.633827 149.893143,84.922913 
	C149.829102,83.870827 148.695465,82.883827 147.768829,81.237343 
	C138.797821,75.405113 129.826813,69.572876 120.009811,63.190655 
	C120.009811,66.238625 120.264389,68.211113 119.959343,70.092880 
	C119.215118,74.683784 121.184509,77.144958 125.269043,79.138512 
	C129.582733,81.243935 133.466827,84.252617 137.464005,86.976166 
	C140.625504,89.130318 141.147766,94.222992 138.467361,96.965286 
	C137.226761,98.234512 135.790176,99.467392 134.203796,100.199898 
	C132.607147,100.937149 130.157776,101.895134 129.084915,101.202652 
	C127.570282,100.225029 126.880211,97.864136 126.018593,96.010490 
	C125.169556,94.183937 125.029961,91.750923 123.713661,90.481125 
	C121.575668,88.418648 118.731873,87.087822 115.399940,84.941902 
	C115.257172,87.880920 114.788551,90.315987 115.105171,92.644272 
	C115.622841,96.451027 114.110519,98.799561 110.943581,100.598816 
	C107.285072,102.677361 103.744354,104.963249 99.251511,107.274292 
	C99.139656,115.520638 99.027794,123.766991 98.996094,131.997437 
	C98.996094,131.997437 98.978760,131.917587 98.447037,132.059570 
	C98.280540,132.369217 98.114037,132.678864 97.291855,133.244904 
	C94.460411,134.882645 91.628960,136.520386 88.640816,138.248764 
	C87.314133,136.757538 86.156303,135.456085 85.820587,134.002258 
	C86.339867,129.215714 90.049385,126.663879 92.989471,123.514893 
	C94.004982,122.427231 94.562538,120.776741 94.972427,119.285271 
	C96.029282,115.439659 96.498528,111.386223 97.947632,107.709480 
	C99.094795,104.798813 101.346634,102.323524 103.769844,98.652023 
	C100.836456,99.303635 98.891640,99.735657 96.365814,99.553757 
	C98.504822,97.877197 100.643822,96.200638 102.809372,94.503265 
	C102.214096,94.184517 101.635094,93.916420 101.098549,93.580490 
	C97.015091,91.023880 93.244461,86.833313 87.917236,91.473770 
	C87.353271,91.965034 85.666733,91.755661 84.861000,91.271812 
	C82.372162,89.777260 80.178383,87.773842 77.645416,86.374634 
	C74.316643,84.535820 76.066315,83.637680 78.044296,82.511414 
	C81.812744,80.365669 85.555328,78.174500 88.992249,76.185318 
	C93.275192,78.628670 97.310165,80.930565 101.344246,83.231941 
	C104.747169,77.194420 103.464127,72.376274 98.140427,69.577179 
	C97.010361,68.983017 96.041054,68.090706 94.960953,67.392586 
	C90.770981,64.684402 86.692406,64.273071 82.269997,67.236595 
	C77.143845,70.671707 71.619698,73.513313 66.497650,76.953957 
	C63.759296,78.793404 59.239914,79.649818 60.054016,84.409073 
	C61.468658,92.679100 58.813812,98.673317 50.478195,102.084404 
	C50.294521,102.380173 50.110844,102.675934 49.465351,103.105186 
	C49.172215,103.288185 49.005058,103.551239 48.342987,103.959190 
	C47.891670,104.285660 47.440357,104.612129 46.104340,105.010872 
	C45.762211,105.274353 45.122719,105.535721 45.120831,105.801620 
	C45.045574,116.402878 45.000172,127.004784 45.087158,137.605484 
	C45.091427,138.125656 46.318268,138.635818 47.185810,139.732285 
	C47.784698,139.836182 48.383591,139.940094 49.243504,140.686554 
	C50.245182,141.467926 51.226814,142.276794 52.252613,143.025101 
	C54.546139,144.698181 56.861671,146.341095 59.012608,148.917252 
	C59.009632,150.716812 59.279594,152.567352 58.954620,154.306747 
	C57.786308,160.560074 60.106220,164.780014 66.188835,167.703079 
	C66.771637,167.809174 67.354439,167.915268 68.174133,168.642792 
	C69.104416,169.127686 70.034698,169.612595 71.237595,170.735748 
	C76.566658,174.270798 81.895729,177.805862 87.265045,181.367615 
	C90.514862,175.364349 89.572823,170.511536 84.858742,167.386734 
	C81.378159,165.079575 77.703331,163.058762 74.284546,160.667984 
	C72.659599,159.531647 70.605598,158.041748 70.169884,156.346130 
	C68.619125,150.311249 70.192207,147.263855 75.506752,144.166275 
	C78.620255,142.351562 82.507683,144.328445 83.019295,147.986633 
	C84.011215,155.079178 84.816376,155.911438 92.457458,157.424332 
	C92.641220,156.337555 93.093620,155.227737 92.958931,154.194458 
	C92.283325,149.011597 94.763687,145.985489 99.249367,143.883087 
	C101.973106,142.606491 104.429115,140.758667 107.646965,139.015701 
	C108.121689,138.693314 108.596413,138.370926 109.010483,137.998810 
M487.126740,104.930717 
	C487.049805,99.952133 486.972900,94.973549 487.046631,89.428383 
	C486.688690,89.141472 486.330780,88.854553 485.080780,88.289230 
	C480.178131,88.289230 475.275452,88.289230 470.202728,88.289230 
	C470.202728,91.911942 470.202728,94.986977 469.883148,98.354446 
	C469.997742,98.877113 470.112335,99.399773 470.079254,100.838249 
	C470.079254,102.581177 470.079254,104.324104 470.079254,106.151245 
	C467.790649,106.400291 465.896179,106.606445 463.128967,106.458580 
	C457.963593,106.454216 452.789673,106.625427 447.636261,106.374931 
	C444.862244,106.240097 443.503845,107.149033 442.414612,109.702820 
	C439.259399,117.100433 435.797363,124.367203 432.144531,132.366928 
	C428.556702,124.518082 424.871368,117.552834 422.191803,110.220047 
	C420.312744,105.077820 416.595520,106.832939 413.257111,106.399704 
	C410.023804,105.980095 408.160980,106.947472 406.845917,110.240433 
	C403.929138,117.544106 400.479584,124.635010 396.708923,133.008179 
	C393.389069,124.778214 390.707031,117.751213 387.675507,110.878349 
	C386.911041,109.145264 385.124786,106.764473 383.643250,106.639771 
	C377.810699,106.148842 371.912445,106.438606 365.526062,106.438606 
	C366.546570,108.526337 367.102753,109.726768 367.711456,110.899940 
	C374.562714,124.104294 381.462952,137.283432 388.258118,150.516571 
	C390.804504,155.475525 395.081207,155.310730 399.808533,155.503799 
	C404.224243,155.684143 404.535370,152.579163 405.700195,150.088470 
	C408.641602,143.799088 411.372467,137.411255 414.478363,130.407440 
	C417.916931,138.073853 421.017853,145.024414 424.151550,151.960205 
	C425.985626,156.019638 435.930511,157.117767 438.310547,153.404358 
	C441.294189,148.749161 444.185486,144.012650 446.765869,139.126007 
	C451.377808,130.392181 455.686615,121.498428 460.274292,112.751312 
	C460.591980,112.145576 462.167694,112.199654 463.001434,112.857468 
	C463.001434,114.957428 463.001434,117.057396 463.001434,119.220963 
	C465.650543,119.390778 467.748169,119.525238 470.686584,119.713600 
	C470.686584,127.896378 470.228851,135.841904 470.848663,143.702469 
	C471.257172,148.883438 473.750580,153.530609 479.808533,155.820099 
	C480.544403,155.881622 481.280304,155.943146 482.758240,156.388687 
	C483.858704,156.531006 484.959198,156.673325 486.132629,157.390900 
	C486.722260,157.162292 487.311859,156.933685 488.691772,156.817719 
	C491.804291,155.905807 494.916779,154.993912 498.625397,154.031662 
	C498.694550,153.692047 498.763702,153.352448 498.886780,152.268646 
	C497.644409,148.394852 496.402008,144.521057 495.178101,140.704819 
	C488.752106,142.212051 487.240173,141.054474 487.090179,134.909775 
	C486.976807,130.266357 486.972839,125.620270 487.246796,120.469093 
	C487.629761,120.024017 488.012756,119.578941 489.254944,119.388977 
	C491.824951,119.388977 494.394928,119.388977 497.074890,119.388977 
	C497.074890,114.857193 497.074890,110.860405 497.074890,106.399673 
	C494.174469,106.531105 491.597809,106.647858 488.400238,106.389633 
	C487.953522,106.207413 487.506805,106.025192 487.126740,104.930717 
M183.643417,133.825867 
	C189.011673,144.289536 196.524780,152.261627 208.280182,155.537750 
	C229.176727,161.361420 249.956436,149.561874 254.634567,128.555878 
	C255.793823,123.350555 254.866226,117.680481 254.897903,112.224037 
	C251.011047,111.881439 247.128342,111.314690 243.236481,111.242668 
	C235.002548,111.090294 226.763840,111.196251 218.464050,111.196251 
	C218.464050,116.263535 218.464050,120.529411 218.464050,125.264404 
	C224.422592,125.264404 230.161133,125.264404 236.137573,125.264404 
	C236.313034,131.849075 233.037445,135.725555 227.957367,138.224152 
	C222.236404,141.037964 216.145401,141.427582 210.797760,137.792572 
	C201.174957,131.251572 198.070618,121.711235 200.021240,110.475494 
	C201.561401,101.604103 206.389450,94.692947 215.118240,92.383743 
	C223.498642,90.166718 230.989059,93.058586 236.163696,100.560257 
	C236.389725,100.887939 236.981522,100.963333 237.512650,101.206459 
	C241.232407,97.106445 244.899536,93.064445 248.514816,89.079582 
	C244.108002,83.162407 238.704361,79.437477 231.470108,77.180542 
	C215.308197,72.138382 199.671616,76.294373 189.179352,89.352715 
	C178.550232,102.581360 177.298157,117.486946 183.643417,133.825867 
M630.653870,106.499649 
	C630.653870,122.744270 630.653870,138.988892 630.653870,155.181046 
	C636.541992,155.181046 641.680969,155.181046 647.126709,155.181046 
	C647.322327,153.690582 647.502319,152.319733 647.707703,150.754990 
	C658.781738,159.594025 670.900391,158.538147 679.336670,151.047714 
	C688.457336,142.949615 691.321655,128.460190 684.217529,116.781265 
	C680.516052,110.696304 675.362000,106.517036 668.046326,105.380859 
	C660.739197,104.246002 654.087280,105.878708 647.510620,110.542976 
	C647.510620,97.754066 647.510620,85.816826 647.510620,73.760078 
	C641.764832,73.760078 636.380371,73.760078 630.652466,73.760078 
	C630.652466,84.555733 630.652466,95.027687 630.653870,106.499649 
M525.353577,108.890518 
	C524.476379,109.540909 523.599243,110.191299 522.070557,111.324753 
	C522.070557,98.332947 522.070557,86.124756 522.070557,73.672195 
	C516.215454,73.672195 510.788635,73.672195 505.020660,73.672195 
	C504.774445,75.832886 504.328217,77.860184 504.353546,79.881561 
	C504.428894,85.895615 504.795929,91.906319 504.853912,97.920204 
	C504.949982,107.887123 504.924896,117.855598 504.892029,127.823235 
	C504.864899,136.055450 504.674927,144.288437 504.784607,152.518051 
	C504.797180,153.462494 506.232391,155.151413 507.075958,155.195526 
	C511.990234,155.452545 516.924805,155.321411 522.087952,155.321411 
	C522.087952,146.227982 522.015503,137.745819 522.143005,129.266663 
	C522.171936,127.340950 522.417969,125.129448 523.391846,123.564560 
	C525.732239,119.803741 529.192322,117.482086 533.888916,118.596939 
	C538.915405,119.790085 540.718018,123.622940 540.779053,128.338272 
	C540.894531,137.247131 540.812378,146.158554 540.812378,154.942215 
	C546.871582,154.942215 552.258545,154.942215 557.720886,154.942215 
	C557.720886,143.774078 557.786316,132.998260 557.694397,122.223816 
	C557.645386,116.484245 555.068420,111.518158 550.284424,108.825012 
	C542.495544,104.440361 534.154419,102.831970 525.353577,108.890518 
M352.907013,109.530891 
	C341.125885,103.174789 329.378906,103.201767 317.955963,110.223068 
	C307.437653,116.688324 302.215485,133.172607 308.501923,142.669281 
	C315.009613,152.500198 324.796783,157.527649 337.003998,156.929428 
	C343.807098,156.596024 350.842621,155.574921 355.793732,151.074326 
	C371.225586,137.046570 366.585968,117.780350 352.907013,109.530891 
M614.011780,151.394791 
	C617.797485,148.615341 619.531677,144.402298 619.698608,140.176788 
	C620.136597,129.091721 619.846436,117.977882 619.846436,106.732681 
	C614.424133,106.732681 609.030762,106.732681 603.099731,106.732681 
	C603.099731,115.820557 603.339905,124.618065 603.022095,133.395370 
	C602.777588,140.147125 599.901062,142.826630 594.004150,142.942795 
	C587.954224,143.061981 585.357117,140.711624 584.420959,133.917831 
	C584.082214,131.459854 584.154724,128.937378 584.141907,126.443802 
	C584.108154,119.868645 584.130554,113.293198 584.130554,106.580139 
	C578.161438,106.580139 572.872437,106.580139 566.906250,106.580139 
	C566.906250,111.389404 566.790894,116.026649 566.933716,120.655930 
	C567.141968,127.409027 567.240479,134.187378 567.944092,140.896408 
	C568.505676,146.250198 571.175049,151.047226 576.202332,153.216949 
	C588.702026,158.611786 601.251221,158.782730 614.011780,151.394791 
M279.630096,136.554291 
	C279.630829,135.056015 279.618011,133.557602 279.634460,132.059509 
	C279.726837,123.651901 281.957306,120.995598 290.166473,120.446831 
	C292.958740,120.260170 295.822754,121.146729 298.921600,121.580338 
	C301.030731,117.248924 303.253235,112.684685 305.520050,108.029396 
	C295.298553,102.874580 287.161865,104.740677 279.949249,112.717590 
	C279.673706,110.137085 279.501831,108.527534 279.310486,106.735481 
	C273.711334,106.735481 268.340729,106.735481 262.960388,106.735481 
	C262.960388,123.102959 262.960388,139.146362 262.960388,154.917618 
	C268.711609,154.917618 274.098816,154.917618 279.630829,154.917618 
	C279.630829,148.844910 279.630829,143.190826 279.630096,136.554291 
z"/>
<path fill="#AC70F7" opacity="1.000000" stroke="none" 
	d="
M161.997452,140.214310 
	C158.570465,142.751816 155.143494,145.289337 151.315887,147.560059 
	C149.943787,148.747360 148.239426,150.150955 148.135101,151.664780 
	C147.791168,156.656326 148.724075,161.828461 145.087708,166.109146 
	C145.087708,166.109146 144.988617,166.027817 144.660645,166.036133 
	C142.235992,167.406342 140.139328,168.768219 138.042664,170.130096 
	C132.424942,173.517960 126.849915,176.981262 121.142899,180.211365 
	C120.299103,180.688934 118.664833,180.388977 117.683952,179.886826 
	C114.959335,178.491989 112.365669,176.834366 109.757835,175.219879 
	C104.470261,171.946411 108.222145,166.372330 106.601280,161.926208 
	C109.044945,163.093460 111.890472,163.804077 113.846519,165.525436 
	C117.624763,168.850372 121.121590,168.384689 124.963127,166.045547 
	C127.857468,164.283157 130.806320,162.610275 133.981308,160.750900 
	C129.809647,158.040710 125.872368,155.482803 121.826889,152.854599 
	C115.625839,158.332932 110.933418,154.329453 106.044273,150.481659 
	C110.520233,147.355728 114.895836,144.299881 119.978424,141.137680 
	C122.835854,141.683273 124.986282,142.335236 127.093544,142.997803 
	C127.050369,143.008423 127.033516,142.921112 126.998291,143.201202 
	C127.258354,143.700012 127.553642,143.918747 128.032471,144.437866 
	C131.849411,146.968765 135.482819,149.199280 140.390152,152.211853 
	C138.294937,142.856461 143.105011,139.243088 149.584702,136.760635 
	C150.454514,136.427383 151.120346,135.561737 152.271912,134.914642 
	C153.433426,133.958908 154.841080,133.051147 154.870926,132.100159 
	C155.070236,125.748970 155.147125,119.381966 154.903366,113.033936 
	C154.783279,109.906425 150.672333,107.667259 147.613754,108.799927 
	C143.267349,104.281532 140.832275,109.206863 138.181839,110.614243 
	C134.888489,112.362999 134.757828,116.597816 137.638443,118.995117 
	C140.852173,121.669632 144.394669,123.949127 147.798950,126.404099 
	C142.751770,131.818436 139.926025,132.909637 136.194153,129.935089 
	C132.264191,126.802650 128.828949,126.709991 124.770126,129.988998 
	C122.641823,130.379486 120.899590,130.746902 119.157356,131.114319 
	C118.774162,126.039001 118.058784,121.073219 124.028023,118.014244 
	C125.030685,117.500435 124.869812,112.667564 123.755226,110.657150 
	C122.679077,108.716087 120.164673,106.215950 116.933403,108.969994 
	C115.141953,110.496872 112.903992,111.499878 110.169388,113.073929 
	C109.329224,121.629013 109.186958,129.849167 109.044693,138.069336 
	C109.044693,138.069336 109.010483,137.998810 108.707626,137.952545 
	C107.938309,138.326660 107.471848,138.747055 107.005386,139.167450 
	C104.429115,140.758667 101.973106,142.606491 99.249367,143.883087 
	C94.763687,145.985489 92.283325,149.011597 92.958931,154.194458 
	C93.093620,155.227737 92.641220,156.337555 92.457458,157.424332 
	C84.816376,155.911438 84.011215,155.079178 83.019295,147.986633 
	C82.507683,144.328445 78.620255,142.351562 75.506752,144.166275 
	C70.192207,147.263855 68.619125,150.311249 70.169884,156.346130 
	C70.605598,158.041748 72.659599,159.531647 74.284546,160.667984 
	C77.703331,163.058762 81.378159,165.079575 84.858742,167.386734 
	C89.572823,170.511536 90.514862,175.364349 87.265045,181.367615 
	C81.895729,177.805862 76.566658,174.270798 71.062714,170.058960 
	C69.904305,168.928574 68.920776,168.474976 67.937241,168.021362 
	C67.354439,167.915268 66.771637,167.809174 66.076637,167.043274 
	C65.797508,165.767136 65.788666,164.728531 65.439857,164.597946 
	C60.395988,162.709518 60.995808,158.537903 60.902252,154.404678 
	C60.853626,152.256577 59.779251,150.131683 59.168243,147.996307 
	C56.861671,146.341095 54.546139,144.698181 52.252613,143.025101 
	C51.226814,142.276794 50.245182,141.467926 49.082565,140.037674 
	C48.274715,138.927307 47.627808,138.465820 46.990242,138.000687 
	C46.999588,137.997040 46.995834,138.016144 46.998840,137.545990 
	C46.991982,126.707237 46.982121,116.338631 46.973534,105.985947 
	C46.974804,106.001869 46.954742,105.970642 47.289703,105.941162 
	C48.071072,105.239235 48.517475,104.566795 48.963882,103.894348 
	C49.005058,103.551239 49.172215,103.288185 49.961636,103.054062 
	C50.634804,103.006844 50.811691,103.010750 51.045471,103.152237 
	C51.190830,103.337326 51.279301,103.384842 51.367771,103.432350 
	C51.250053,103.284424 51.132336,103.136505 51.011028,102.779251 
	C51.007439,102.569923 51.016758,102.151314 51.016758,102.151314 
	C58.813812,98.673317 61.468658,92.679100 60.054016,84.409073 
	C59.239914,79.649818 63.759296,78.793404 66.497650,76.953957 
	C71.619698,73.513313 77.143845,70.671707 82.269997,67.236595 
	C86.692406,64.273071 90.770981,64.684402 94.960953,67.392586 
	C96.041054,68.090706 97.010361,68.983017 98.140427,69.577179 
	C103.464127,72.376274 104.747169,77.194420 101.344246,83.231941 
	C97.310165,80.930565 93.275192,78.628670 88.992249,76.185318 
	C85.555328,78.174500 81.812744,80.365669 78.044296,82.511414 
	C76.066315,83.637680 74.316643,84.535820 77.645416,86.374634 
	C80.178383,87.773842 82.372162,89.777260 84.861000,91.271812 
	C85.666733,91.755661 87.353271,91.965034 87.917236,91.473770 
	C93.244461,86.833313 97.015091,91.023880 101.098549,93.580490 
	C101.635094,93.916420 102.214096,94.184517 102.809372,94.503265 
	C100.643822,96.200638 98.504822,97.877197 96.665863,99.805634 
	C96.965919,100.057510 97.078423,100.058311 96.749481,99.721069 
	C95.632011,100.282394 94.843475,101.180977 94.028709,102.040443 
	C94.002472,102.001335 94.069336,102.067764 93.835724,101.749878 
	C92.399765,102.224060 91.197426,103.016113 89.680656,103.865341 
	C88.840347,104.243172 88.314476,104.563835 87.485916,104.752167 
	C81.588623,101.166954 75.994019,97.714073 70.407883,94.266418 
	C69.900826,97.950546 69.479233,101.013756 69.031372,104.038239 
	C69.005112,103.999504 69.072754,104.064522 68.807968,103.735336 
	C64.374031,105.956337 60.204880,108.506523 55.819740,111.069244 
	C55.603752,111.081772 55.175674,111.018669 54.834595,111.274361 
	C54.689026,118.683556 54.884529,125.837067 55.045494,132.980392 
	C55.010948,132.970215 55.055092,132.913315 55.044548,133.169022 
	C55.594639,133.633926 56.155281,133.843109 56.994682,134.076599 
	C57.458794,134.122086 57.644135,134.143265 58.011856,134.460541 
	C62.364677,139.130402 66.450058,138.288467 70.727974,134.785233 
	C74.003799,132.102631 73.904602,128.232269 70.311226,125.698021 
	C67.167503,123.480896 64.100342,121.155235 60.622860,118.600983 
	C63.001728,116.849266 64.941490,115.420883 67.302933,113.997162 
	C69.137573,114.216095 70.818970,114.013496 71.915344,114.719444 
	C75.893967,117.281265 79.583626,118.013062 83.675728,114.841347 
	C85.346558,113.546326 87.632324,113.044693 90.003807,112.024940 
	C89.985779,117.091103 91.748512,122.047798 86.700699,125.069626 
	C82.525681,127.568970 83.222153,130.690781 84.998474,134.154648 
	C86.156303,135.456085 87.314133,136.757538 88.640816,138.248764 
	C91.628960,136.520386 94.460411,134.882645 97.910324,133.073639 
	C98.678780,132.574127 98.828773,132.245865 98.978760,131.917587 
	C98.978760,131.917587 98.996094,131.997437 99.345093,131.808258 
	C99.846901,123.465752 99.999702,115.312431 100.152496,107.159119 
	C103.744354,104.963249 107.285072,102.677361 110.943581,100.598816 
	C114.110519,98.799561 115.622841,96.451027 115.105171,92.644272 
	C114.788551,90.315987 115.257172,87.880920 115.399940,84.941902 
	C118.731873,87.087822 121.575668,88.418648 123.713661,90.481125 
	C125.029961,91.750923 125.169556,94.183937 126.018593,96.010490 
	C126.880211,97.864136 127.570282,100.225029 129.084915,101.202652 
	C130.157776,101.895134 132.607147,100.937149 134.203796,100.199898 
	C135.790176,99.467392 137.226761,98.234512 138.467361,96.965286 
	C141.147766,94.222992 140.625504,89.130318 137.464005,86.976166 
	C133.466827,84.252617 129.582733,81.243935 125.269043,79.138512 
	C121.184509,77.144958 119.215118,74.683784 119.959343,70.092880 
	C120.264389,68.211113 120.009811,66.238625 120.009811,63.190655 
	C129.826813,69.572876 138.797821,75.405113 147.895691,82.026535 
	C148.016312,86.238907 147.842880,89.674065 148.086838,93.079315 
	C148.183243,94.424911 149.208878,95.703941 149.811417,97.013275 
	C149.811417,97.013275 149.954620,97.443344 150.100464,97.913620 
	C150.542114,98.571671 150.837906,98.759453 151.133698,98.947243 
	C151.575684,99.289108 152.017685,99.630981 152.867905,100.260742 
	C153.508026,100.788452 153.790100,100.923264 154.122360,100.953064 
	C156.820282,102.564545 159.518204,104.176018 162.501480,106.208336 
	C162.786835,106.629181 162.754822,107.110153 162.509354,107.422363 
	C162.167862,118.161522 162.071838,128.588470 161.979584,139.315170 
	C161.988037,139.814713 161.992737,140.014511 161.997452,140.214310 
z"/>
<path fill="#F9F9F9" opacity="1.000000" stroke="none" 
	d="
M183.462357,133.493988 
	C177.298157,117.486946 178.550232,102.581360 189.179352,89.352715 
	C199.671616,76.294373 215.308197,72.138382 231.470108,77.180542 
	C238.704361,79.437477 244.108002,83.162407 248.514816,89.079582 
	C244.899536,93.064445 241.232407,97.106445 237.512650,101.206459 
	C236.981522,100.963333 236.389725,100.887939 236.163696,100.560257 
	C230.989059,93.058586 223.498642,90.166718 215.118240,92.383743 
	C206.389450,94.692947 201.561401,101.604103 200.021240,110.475494 
	C198.070618,121.711235 201.174957,131.251572 210.797760,137.792572 
	C216.145401,141.427582 222.236404,141.037964 227.957367,138.224152 
	C233.037445,135.725555 236.313034,131.849075 236.137573,125.264404 
	C230.161133,125.264404 224.422592,125.264404 218.464050,125.264404 
	C218.464050,120.529411 218.464050,116.263535 218.464050,111.196251 
	C226.763840,111.196251 235.002548,111.090294 243.236481,111.242668 
	C247.128342,111.314690 251.011047,111.881439 254.897903,112.224045 
	C254.866226,117.680481 255.793823,123.350555 254.634567,128.555878 
	C249.956436,149.561874 229.176727,161.361420 208.280182,155.537750 
	C196.524780,152.261627 189.011673,144.289536 183.462357,133.493988 
z"/>
<path fill="#F9F9F9" opacity="1.000000" stroke="none" 
	d="
M630.653198,105.999641 
	C630.652466,95.027687 630.652466,84.555733 630.652466,73.760078 
	C636.380371,73.760078 641.764832,73.760078 647.510620,73.760078 
	C647.510620,85.816826 647.510620,97.754066 647.510620,110.542976 
	C654.087280,105.878708 660.739197,104.246002 668.046326,105.380859 
	C675.362000,106.517036 680.516052,110.696304 684.217529,116.781265 
	C691.321655,128.460190 688.457336,142.949615 679.336670,151.047714 
	C670.900391,158.538147 658.781738,159.594025 647.707703,150.754990 
	C647.502319,152.319733 647.322327,153.690582 647.126709,155.181046 
	C641.680969,155.181046 636.541992,155.181046 630.653870,155.181046 
	C630.653870,138.988892 630.653870,122.744270 630.653198,105.999641 
M665.544922,121.814102 
	C659.365967,118.502548 654.558350,118.859848 650.600647,122.924728 
	C646.799316,126.828979 646.126038,132.392517 648.888000,137.076630 
	C651.514587,141.531158 656.768616,143.359253 662.372070,141.768311 
	C670.368103,139.498093 672.267883,129.795486 665.544922,121.814102 
z"/>
<path fill="#F7F7F7" opacity="1.000000" stroke="none" 
	d="
M463.158386,111.946884 
	C462.167694,112.199654 460.591980,112.145576 460.274292,112.751312 
	C455.686615,121.498428 451.377808,130.392181 446.765869,139.126007 
	C444.185486,144.012650 441.294189,148.749161 438.310547,153.404358 
	C435.930511,157.117767 425.985626,156.019638 424.151550,151.960205 
	C421.017853,145.024414 417.916931,138.073853 414.478363,130.407440 
	C411.372467,137.411255 408.641602,143.799088 405.700195,150.088470 
	C404.535370,152.579163 404.224243,155.684143 399.808533,155.503799 
	C395.081207,155.310730 390.804504,155.475525 388.258118,150.516571 
	C381.462952,137.283432 374.562714,124.104294 367.711456,110.899940 
	C367.102753,109.726768 366.546570,108.526337 365.526062,106.438606 
	C371.912445,106.438606 377.810699,106.148842 383.643250,106.639771 
	C385.124786,106.764473 386.911041,109.145264 387.675507,110.878349 
	C390.707031,117.751213 393.389069,124.778214 396.708923,133.008179 
	C400.479584,124.635010 403.929138,117.544106 406.845917,110.240433 
	C408.160980,106.947472 410.023804,105.980095 413.257111,106.399704 
	C416.595520,106.832939 420.312744,105.077820 422.191803,110.220047 
	C424.871368,117.552834 428.556702,124.518082 432.144531,132.366928 
	C435.797363,124.367203 439.259399,117.100433 442.414612,109.702820 
	C443.503845,107.149033 444.862244,106.240097 447.636261,106.374931 
	C452.789673,106.625427 457.963593,106.454216 463.570099,106.976639 
	C463.726959,108.978767 463.442688,110.462830 463.158386,111.946884 
z"/>
<path fill="#F9F9F9" opacity="1.000000" stroke="none" 
	d="
M525.659668,108.666534 
	C534.154419,102.831970 542.495544,104.440361 550.284424,108.825012 
	C555.068420,111.518158 557.645386,116.484245 557.694397,122.223816 
	C557.786316,132.998260 557.720886,143.774078 557.720886,154.942215 
	C552.258545,154.942215 546.871582,154.942215 540.812378,154.942215 
	C540.812378,146.158554 540.894531,137.247131 540.779053,128.338272 
	C540.718018,123.622940 538.915405,119.790085 533.888916,118.596939 
	C529.192322,117.482086 525.732239,119.803741 523.391846,123.564560 
	C522.417969,125.129448 522.171936,127.340950 522.143005,129.266663 
	C522.015503,137.745819 522.087952,146.227982 522.087952,155.321411 
	C516.924805,155.321411 511.990234,155.452545 507.075958,155.195526 
	C506.232391,155.151413 504.797180,153.462494 504.784607,152.518051 
	C504.674927,144.288437 504.864899,136.055450 504.892029,127.823235 
	C504.924896,117.855598 504.949982,107.887123 504.853912,97.920204 
	C504.795929,91.906319 504.428894,85.895615 504.353546,79.881561 
	C504.328217,77.860184 504.774445,75.832886 505.020660,73.672195 
	C510.788635,73.672195 516.215454,73.672195 522.070557,73.672195 
	C522.070557,86.124756 522.070557,98.332947 522.070557,111.324753 
	C523.599243,110.191299 524.476379,109.540909 525.659668,108.666534 
z"/>
<path fill="#F9F9F9" opacity="1.000000" stroke="none" 
	d="
M353.219849,109.725616 
	C366.585968,117.780350 371.225586,137.046570 355.793732,151.074326 
	C350.842621,155.574921 343.807098,156.596024 337.003998,156.929428 
	C324.796783,157.527649 315.009613,152.500198 308.501923,142.669281 
	C302.215485,133.172607 307.437653,116.688324 317.955963,110.223068 
	C329.378906,103.201767 341.125885,103.174789 353.219849,109.725616 
M331.301331,141.454819 
	C338.804565,143.300034 344.416077,140.988297 346.533936,135.179535 
	C348.692627,129.258881 346.292572,123.290802 340.652161,120.553429 
	C335.174500,117.895058 327.966156,120.565079 325.523590,126.157188 
	C323.021271,131.886093 325.646271,138.887741 331.301331,141.454819 
z"/>
<path fill="#F8F8F8" opacity="1.000000" stroke="none" 
	d="
M613.716431,151.629852 
	C601.251221,158.782730 588.702026,158.611786 576.202332,153.216949 
	C571.175049,151.047226 568.505676,146.250198 567.944092,140.896408 
	C567.240479,134.187378 567.141968,127.409027 566.933716,120.655930 
	C566.790894,116.026649 566.906250,111.389404 566.906250,106.580139 
	C572.872437,106.580139 578.161438,106.580139 584.130554,106.580139 
	C584.130554,113.293198 584.108154,119.868645 584.141907,126.443802 
	C584.154724,128.937378 584.082214,131.459854 584.420959,133.917831 
	C585.357117,140.711624 587.954224,143.061981 594.004150,142.942795 
	C599.901062,142.826630 602.777588,140.147125 603.022095,133.395370 
	C603.339905,124.618065 603.099731,115.820557 603.099731,106.732681 
	C609.030762,106.732681 614.424133,106.732681 619.846436,106.732681 
	C619.846436,117.977882 620.136597,129.091721 619.698608,140.176788 
	C619.531677,144.402298 617.797485,148.615341 613.716431,151.629852 
z"/>
<path fill="#FFFFFF" opacity="1.000000" stroke="none" 
	d="
M463.079895,112.402176 
	C463.442688,110.462830 463.726959,108.978767 464.006470,107.153656 
	C465.896179,106.606445 467.790649,106.400291 470.079254,106.151245 
	C470.079254,104.324104 470.079254,102.581177 470.352051,100.242813 
	C470.484161,99.118927 470.343445,98.590469 470.202698,98.062012 
	C470.202728,94.986977 470.202728,91.911942 470.202728,88.289230 
	C475.275452,88.289230 480.178131,88.289230 485.551880,88.654175 
	C486.313965,89.344398 486.604980,89.669678 486.895966,89.994965 
	C486.972900,94.973549 487.049805,99.952133 487.079651,105.666336 
	C487.695435,106.522842 488.358307,106.643723 489.021179,106.764610 
	C491.597809,106.647858 494.174469,106.531105 497.074890,106.399673 
	C497.074890,110.860405 497.074890,114.857193 497.074890,119.388977 
	C494.394928,119.388977 491.824951,119.388977 488.505219,119.221832 
	C487.477051,119.694916 487.198608,120.335144 486.920166,120.975372 
	C486.972839,125.620270 486.976807,130.266357 487.090179,134.909775 
	C487.240173,141.054474 488.752106,142.212051 495.178101,140.704819 
	C496.402008,144.521057 497.644409,148.394852 498.663788,152.766266 
	C498.204437,153.486679 498.067261,153.759384 498.029297,154.082001 
	C494.916779,154.993912 491.804291,155.905807 488.151917,156.570892 
	C487.094604,156.487930 486.577148,156.651794 486.059662,156.815643 
	C484.959198,156.673325 483.858704,156.531006 482.223999,155.960968 
	C480.965942,155.413376 480.242065,155.293488 479.518219,155.173615 
	C473.750580,153.530609 471.257172,148.883438 470.848663,143.702469 
	C470.228851,135.841904 470.686584,127.896378 470.686584,119.713600 
	C467.748169,119.525238 465.650543,119.390778 463.001434,119.220963 
	C463.001434,117.057396 463.001434,114.957428 463.079895,112.402176 
M486.411835,117.482864 
	C486.411835,117.482864 486.523071,117.416420 486.411835,117.482864 
z"/>
<path fill="#F7F7F7" opacity="1.000000" stroke="none" 
	d="
M279.630463,137.045517 
	C279.630829,143.190826 279.630829,148.844910 279.630829,154.917618 
	C274.098816,154.917618 268.711609,154.917618 262.960388,154.917618 
	C262.960388,139.146362 262.960388,123.102959 262.960388,106.735481 
	C268.340729,106.735481 273.711334,106.735481 279.310486,106.735481 
	C279.501831,108.527534 279.673706,110.137085 279.949249,112.717590 
	C287.161865,104.740677 295.298553,102.874580 305.520050,108.029396 
	C303.253235,112.684685 301.030731,117.248924 298.921600,121.580338 
	C295.822754,121.146729 292.958740,120.260170 290.166473,120.446831 
	C281.957306,120.995598 279.726837,123.651901 279.634460,132.059509 
	C279.618011,133.557602 279.630829,135.056015 279.630463,137.045517 
z"/>
<path fill="#FEFCFF" opacity="1.000000" stroke="none" 
	d="
M85.409531,134.078461 
	C83.222153,130.690781 82.525681,127.568970 86.700699,125.069626 
	C91.748512,122.047798 89.985779,117.091103 90.003807,112.024940 
	C87.632324,113.044693 85.346558,113.546326 83.675728,114.841347 
	C79.583626,118.013062 75.893967,117.281265 71.915344,114.719444 
	C70.818970,114.013496 69.137573,114.216095 67.437424,113.657204 
	C68.127838,112.588570 69.105453,111.864532 69.072754,111.888748 
	C69.072754,108.663246 69.072754,106.363884 69.072754,104.064522 
	C69.072754,104.064522 69.005112,103.999504 69.440048,104.001450 
	C70.861771,103.995789 72.137558,104.386642 72.787804,103.915031 
	C76.610535,101.142464 79.741730,102.392372 83.130829,104.878174 
	C84.141335,105.619339 86.206604,104.922478 87.788597,104.884491 
	C88.314476,104.563835 88.840347,104.243172 90.028473,103.952103 
	C91.816925,103.343727 92.943130,102.705750 94.069336,102.067764 
	C94.069336,102.067764 94.002472,102.001335 94.356232,102.001724 
	C95.499474,101.354172 96.288948,100.706238 97.078415,100.058304 
	C97.078423,100.058311 96.965919,100.057510 96.956375,100.112595 
	C98.891640,99.735657 100.836456,99.303635 103.769844,98.652023 
	C101.346634,102.323524 99.094795,104.798813 97.947632,107.709480 
	C96.498528,111.386223 96.029282,115.439659 94.972427,119.285271 
	C94.562538,120.776741 94.004982,122.427231 92.989471,123.514893 
	C90.049385,126.663879 86.339867,129.215714 85.409531,134.078461 
z"/>
<path fill="#FEFAFF" opacity="1.000000" stroke="none" 
	d="
M127.136719,142.987183 
	C124.986282,142.335236 122.835854,141.683273 120.297401,141.015717 
	C118.403793,139.910797 116.898193,138.821487 115.392601,137.732193 
	C115.606476,137.295151 115.820358,136.858109 116.034241,136.421066 
	C117.517227,136.069122 119.000221,135.717178 120.934113,135.258240 
	C120.165115,133.863602 119.598549,132.836090 119.094673,131.461456 
	C120.899590,130.746902 122.641823,130.379486 124.794159,130.364777 
	C126.137520,133.173874 127.363426,135.569214 127.893539,138.109741 
	C128.208115,139.617279 127.425835,141.353683 127.136719,142.987183 
z"/>
<path fill="#FFFFFF" opacity="1.000000" stroke="none" 
	d="
M164.029938,106.870155 
	C164.352905,107.709061 164.956772,108.548248 164.955948,109.386841 
	C164.946396,119.170204 164.845779,128.953491 164.382446,138.659409 
	C163.782623,138.013046 163.569626,137.444077 163.305283,136.438507 
	C163.275955,133.357224 163.297974,130.712524 163.505127,127.843887 
	C163.566925,126.724068 163.443604,125.828186 163.287231,124.499069 
	C163.280090,121.754333 163.305969,119.442841 163.541702,116.775681 
	C163.844345,113.236725 163.937149,110.053436 164.029938,106.870155 
z"/>
<path fill="#A775E2" opacity="1.000000" stroke="none" 
	d="
M59.090424,148.456787 
	C59.779251,150.131683 60.853626,152.256577 60.902252,154.404678 
	C60.995808,158.537903 60.395988,162.709518 65.439857,164.597946 
	C65.788666,164.728531 65.797508,165.767136 65.955795,166.766907 
	C60.106220,164.780014 57.786308,160.560074 58.954620,154.306747 
	C59.279594,152.567352 59.009632,150.716812 59.090424,148.456787 
z"/>
<path fill="#A477E2" opacity="1.000000" stroke="none" 
	d="
M145.474579,166.076904 
	C148.724075,161.828461 147.791168,156.656326 148.135101,151.664780 
	C148.239426,150.150955 149.943787,148.747360 150.973083,147.587524 
	C150.685806,151.799881 149.990433,155.727890 150.100998,159.633087 
	C150.198044,163.060593 149.256195,165.209412 145.474579,166.076904 
z"/>
<path fill="#E4C5FF" opacity="1.000000" stroke="none" 
	d="
M46.975819,139.150635 
	C46.318268,138.635818 45.091427,138.125656 45.087158,137.605484 
	C45.000172,127.004784 45.045574,116.402878 45.120831,105.801620 
	C45.122719,105.535721 45.762211,105.274353 46.528206,105.232407 
	C46.952969,105.626167 46.953857,105.798409 46.954742,105.970642 
	C46.954742,105.970642 46.974804,106.001869 46.665203,106.274193 
	C46.232674,115.658485 46.065403,124.770309 46.034332,133.882599 
	C46.029640,135.259323 46.659496,136.638245 46.995834,138.016144 
	C46.995834,138.016144 46.999588,137.997040 46.998138,138.287308 
	C46.989731,138.768600 46.982773,138.959610 46.975819,139.150635 
z"/>
<path fill="#A570E6" opacity="1.000000" stroke="none" 
	d="
M149.893890,96.552544 
	C149.208878,95.703941 148.183243,94.424911 148.086838,93.079315 
	C147.842880,89.674065 148.016312,86.238907 148.037460,82.341354 
	C148.695465,82.883827 149.829102,83.870827 149.893143,84.922913 
	C150.118973,88.633827 149.978119,92.367050 149.893890,96.552544 
z"/>
<path fill="#FEFAFF" opacity="1.000000" stroke="none" 
	d="
M99.702003,107.216705 
	C99.999702,115.312431 99.846901,123.465752 99.305023,131.816193 
	C99.027794,123.766991 99.139656,115.520638 99.702003,107.216705 
z"/>
<path fill="#EED4FF" opacity="1.000000" stroke="none" 
	d="
M109.443604,137.876831 
	C109.186958,129.849167 109.329224,121.629013 109.852203,113.199203 
	C110.102783,121.221153 109.972649,129.452744 109.443604,137.876831 
z"/>
<path fill="#A477E2" opacity="1.000000" stroke="none" 
	d="
M138.400497,170.069366 
	C140.139328,168.768219 142.235992,167.406342 144.714813,166.068970 
	C142.984100,167.398529 140.871216,168.703583 138.400497,170.069366 
z"/>
<path fill="#E0C2FE" opacity="1.000000" stroke="none" 
	d="
M163.951080,106.593185 
	C163.937149,110.053436 163.844345,113.236725 163.427826,116.323112 
	C162.987686,113.187531 162.871246,110.148842 162.754822,107.110153 
	C162.754822,107.110153 162.786835,106.629181 162.797394,106.388771 
	C163.162720,106.204315 163.517487,106.260269 163.951080,106.593185 
z"/>
<path fill="#A775E2" opacity="1.000000" stroke="none" 
	d="
M68.055687,168.332077 
	C68.920776,168.474976 69.904305,168.928574 70.926407,169.739838 
	C70.034698,169.612595 69.104416,169.127686 68.055687,168.332077 
z"/>
<path fill="#E0C2FE" opacity="1.000000" stroke="none" 
	d="
M163.356628,136.875107 
	C163.569626,137.444077 163.782623,138.013046 164.000854,138.894440 
	C163.536789,139.482010 163.067535,139.757156 162.297852,140.123306 
	C161.992737,140.014511 161.988037,139.814713 162.252243,139.133255 
	C162.799637,138.059418 163.078125,137.467255 163.356628,136.875107 
z"/>
<path fill="#A474E4" opacity="1.000000" stroke="none" 
	d="
M47.289703,105.941162 
	C46.953857,105.798409 46.952969,105.626167 46.970558,105.196266 
	C47.440357,104.612129 47.891670,104.285660 48.653435,103.926773 
	C48.517475,104.566795 48.071072,105.239235 47.289703,105.941162 
z"/>
<path fill="#F7F7F7" opacity="1.000000" stroke="none" 
	d="
M488.710693,106.577118 
	C488.358307,106.643723 487.695435,106.522842 487.046326,106.122467 
	C487.506805,106.025192 487.953522,106.207413 488.710693,106.577118 
z"/>
<path fill="#F7F7F7" opacity="1.000000" stroke="none" 
	d="
M486.096130,157.103271 
	C486.577148,156.651794 487.094604,156.487930 487.756775,156.514572 
	C487.311859,156.933685 486.722260,157.162292 486.096130,157.103271 
z"/>
<path fill="#F7F7F7" opacity="1.000000" stroke="none" 
	d="
M479.663391,155.496857 
	C480.242065,155.293488 480.965942,155.413376 481.852966,155.768951 
	C481.280304,155.943146 480.544403,155.881622 479.663391,155.496857 
z"/>
<path fill="#A474E4" opacity="1.000000" stroke="none" 
	d="
M47.080814,139.441467 
	C46.982773,138.959610 46.989731,138.768600 46.988792,138.290955 
	C47.627808,138.465820 48.274715,138.927307 48.952053,139.716400 
	C48.383591,139.940094 47.784698,139.836182 47.080814,139.441467 
z"/>
<path fill="#F7F7F7" opacity="1.000000" stroke="none" 
	d="
M470.042908,98.208229 
	C470.343445,98.590469 470.484161,99.118927 470.425903,99.784912 
	C470.112335,99.399773 469.997742,98.877113 470.042908,98.208229 
z"/>
<path fill="#F7F7F7" opacity="1.000000" stroke="none" 
	d="
M487.083496,120.722229 
	C487.198608,120.335144 487.477051,119.694916 488.075623,119.094276 
	C488.012756,119.578941 487.629761,120.024017 487.083496,120.722229 
z"/>
<path fill="#F7F7F7" opacity="1.000000" stroke="none" 
	d="
M486.971313,89.711670 
	C486.604980,89.669678 486.313965,89.344398 485.997925,88.793381 
	C486.330780,88.854553 486.688690,89.141472 486.971313,89.711670 
z"/>
<path fill="#EED4FF" opacity="1.000000" stroke="none" 
	d="
M107.326172,139.091583 
	C107.471848,138.747055 107.938309,138.326660 108.737946,137.977402 
	C108.596413,138.370926 108.121689,138.693314 107.326172,139.091583 
z"/>
<path fill="#FEFAFF" opacity="1.000000" stroke="none" 
	d="
M98.712906,131.988586 
	C98.828773,132.245865 98.678780,132.574127 98.238159,132.945465 
	C98.114037,132.678864 98.280540,132.369217 98.712906,131.988586 
z"/>
<path fill="#A474E4" opacity="1.000000" stroke="none" 
	d="
M50.747475,102.117859 
	C51.016758,102.151314 51.007439,102.569923 51.003765,102.785004 
	C51.000092,103.000084 50.988579,103.014648 50.988579,103.014648 
	C50.811691,103.010750 50.634804,103.006844 50.192543,102.987320 
	C50.110844,102.675934 50.294521,102.380173 50.747475,102.117859 
z"/>
<path fill="#A570E6" opacity="1.000000" stroke="none" 
	d="
M151.047089,98.685837 
	C150.837906,98.759453 150.542114,98.571671 150.142029,98.136414 
	C150.345322,98.067444 150.652908,98.245941 151.047089,98.685837 
z"/>
<path fill="#F7F7F7" opacity="1.000000" stroke="none" 
	d="
M498.327332,154.056824 
	C498.067261,153.759384 498.204437,153.486679 498.636810,153.138367 
	C498.763702,153.352448 498.694550,153.692047 498.327332,154.056824 
z"/>
<path fill="#A570E6" opacity="1.000000" stroke="none" 
	d="
M154.039978,100.689072 
	C153.790100,100.923264 153.508026,100.788452 153.138214,100.353806 
	C153.319382,100.247665 153.638504,100.336372 154.039978,100.689072 
z"/>
<path fill="#000000" opacity="1.000000" stroke="none" 
	d="
M127.093552,142.997803 
	C127.425835,141.353683 128.208115,139.617279 127.893539,138.109741 
	C127.363426,135.569214 126.137520,133.173874 125.180229,130.341705 
	C128.828949,126.709991 132.264191,126.802650 136.194153,129.935089 
	C139.926025,132.909637 142.751770,131.818436 147.798950,126.404099 
	C144.394669,123.949127 140.852173,121.669632 137.638443,118.995117 
	C134.757828,116.597816 134.888489,112.362999 138.181839,110.614243 
	C140.832275,109.206863 143.267349,104.281532 147.956497,108.946594 
	C150.073792,110.391647 152.704819,111.643990 152.716125,112.919533 
	C152.781113,120.257523 152.225708,127.601006 151.880646,134.942627 
	C151.120346,135.561737 150.454514,136.427383 149.584702,136.760635 
	C143.105011,139.243088 138.294937,142.856461 140.390152,152.211853 
	C135.482819,149.199280 131.849411,146.968765 128.088226,144.145370 
	C127.651482,143.342026 127.342499,143.131577 127.033516,142.921112 
	C127.033516,142.921112 127.050369,143.008423 127.093552,142.997803 
z"/>
<path fill="#000000" opacity="1.000000" stroke="none" 
	d="
M68.807968,103.735336 
	C69.072754,106.363884 69.072754,108.663246 69.072754,111.888748 
	C69.105453,111.864532 68.127838,112.588570 67.015739,113.652557 
	C64.941490,115.420883 63.001728,116.849266 60.622860,118.600983 
	C64.100342,121.155235 67.167503,123.480896 70.311226,125.698021 
	C73.904602,128.232269 74.003799,132.102631 70.727974,134.785233 
	C66.450058,138.288467 62.364677,139.130402 58.085938,134.169144 
	C57.674759,133.364731 57.371876,133.147797 57.070984,132.973404 
	C57.072971,133.015930 57.143265,132.966751 56.961987,132.577026 
	C56.532383,125.143776 56.284054,118.100243 56.035725,111.056717 
	C60.204880,108.506523 64.374031,105.956337 68.807968,103.735336 
z"/>
<path fill="#000000" opacity="1.000000" stroke="none" 
	d="
M87.485916,104.752167 
	C86.206604,104.922478 84.141335,105.619339 83.130829,104.878174 
	C79.741730,102.392372 76.610535,101.142464 72.787804,103.915031 
	C72.137558,104.386642 70.861771,103.995789 69.466309,104.040176 
	C69.479233,101.013756 69.900826,97.950546 70.407883,94.266418 
	C75.994019,97.714073 81.588623,101.166954 87.485916,104.752167 
z"/>
<path fill="#A778E4" opacity="1.000000" stroke="none" 
	d="
M152.271896,134.914642 
	C152.225708,127.601006 152.781113,120.257523 152.716125,112.919533 
	C152.704819,111.643990 150.073792,110.391647 148.310013,108.981926 
	C150.672333,107.667259 154.783279,109.906425 154.903366,113.033936 
	C155.147125,119.381966 155.070236,125.748970 154.870926,132.100159 
	C154.841080,133.051147 153.433426,133.958908 152.271896,134.914642 
z"/>
<path fill="#A570E6" opacity="1.000000" stroke="none" 
	d="
M163.305267,136.438507 
	C163.078125,137.467255 162.799637,138.059418 162.248474,138.833496 
	C162.071838,128.588470 162.167862,118.161522 162.509354,107.422363 
	C162.871246,110.148842 162.987686,113.187531 163.217987,116.678787 
	C163.305969,119.442841 163.280090,121.754333 163.178436,124.884186 
	C163.175110,126.490982 163.247543,127.279404 163.319992,128.067825 
	C163.297974,130.712524 163.275955,133.357224 163.305267,136.438507 
z"/>
<path fill="#A474E4" opacity="1.000000" stroke="none" 
	d="
M46.998840,137.545990 
	C46.659496,136.638245 46.029640,135.259323 46.034332,133.882599 
	C46.065403,124.770309 46.232674,115.658485 46.663933,106.258270 
	C46.982121,116.338631 46.991982,126.707237 46.998840,137.545990 
z"/>
<path fill="#EED4FF" opacity="1.000000" stroke="none" 
	d="
M55.819740,111.069244 
	C56.284054,118.100243 56.532383,125.143776 56.616913,132.664398 
	C55.987106,133.065445 55.521099,132.989380 55.055092,132.913315 
	C55.055092,132.913315 55.010948,132.970215 55.026752,132.511826 
	C55.086929,125.041847 55.131302,118.030258 55.175674,111.018669 
	C55.175674,111.018669 55.603752,111.081772 55.819740,111.069244 
z"/>
<path fill="#A570E6" opacity="1.000000" stroke="none" 
	d="
M54.834595,111.274361 
	C55.131302,118.030258 55.086929,125.041847 55.061295,132.522003 
	C54.884529,125.837067 54.689026,118.683556 54.834595,111.274361 
z"/>
<path fill="#000000" opacity="1.000000" stroke="none" 
	d="
M93.835724,101.749886 
	C92.943130,102.705750 91.816925,103.343727 90.342911,103.894936 
	C91.197426,103.016113 92.399765,102.224060 93.835724,101.749886 
z"/>
<path fill="#000000" opacity="1.000000" stroke="none" 
	d="
M96.749481,99.721062 
	C96.288948,100.706238 95.499474,101.354172 94.382477,102.040833 
	C94.843475,101.180977 95.632011,100.282394 96.749481,99.721062 
z"/>
<path fill="#A570E6" opacity="1.000000" stroke="none" 
	d="
M55.044548,133.169022 
	C55.521099,132.989380 55.987106,133.065445 56.798187,133.054138 
	C57.143265,132.966751 57.072971,133.015930 56.937122,133.239410 
	C56.772823,133.659348 56.744373,133.855820 56.715919,134.052307 
	C56.155281,133.843109 55.594639,133.633926 55.044548,133.169022 
z"/>
<path fill="#EED4FF" opacity="1.000000" stroke="none" 
	d="
M56.994682,134.076599 
	C56.744373,133.855820 56.772823,133.659348 56.935135,133.196869 
	C57.371876,133.147797 57.674759,133.364731 57.903561,133.873047 
	C57.644135,134.143265 57.458794,134.122086 56.994682,134.076599 
z"/>
<path fill="#FEFAFF" opacity="1.000000" stroke="none" 
	d="
M126.998291,143.201202 
	C127.342499,143.131577 127.651482,143.342026 127.904701,143.844986 
	C127.553642,143.918747 127.258354,143.700012 126.998291,143.201202 
z"/>
<path fill="#A474E4" opacity="1.000000" stroke="none" 
	d="
M51.007355,102.994331 
	C51.132336,103.136505 51.250053,103.284424 51.367771,103.432350 
	C51.279301,103.384842 51.190830,103.337326 51.045471,103.152237 
	C50.988579,103.014648 51.000092,103.000084 51.007355,102.994331 
z"/>
<path fill="#060606" opacity="1.000000" stroke="none" 
	d="
M665.863098,122.063934 
	C672.267883,129.795486 670.368103,139.498093 662.372070,141.768311 
	C656.768616,143.359253 651.514587,141.531158 648.888000,137.076630 
	C646.126038,132.392517 646.799316,126.828979 650.600647,122.924728 
	C654.558350,118.859848 659.365967,118.502548 665.863098,122.063934 
z"/>
<path fill="#060606" opacity="1.000000" stroke="none" 
	d="
M331.131073,141.057343 
	C325.646271,138.887741 323.021271,131.886093 325.523590,126.157188 
	C327.966156,120.565079 335.174500,117.895058 340.652161,120.553429 
	C346.292572,123.290802 348.692627,129.258881 346.533936,135.179535 
	C344.416077,140.988297 338.804565,143.300034 331.131073,141.057343 
z"/>
<path fill="#F7F7F7" opacity="1.000000" stroke="none" 
	d="
M486.467468,117.449646 
	C486.523071,117.416420 486.411835,117.482864 486.467468,117.449646 
z"/>
<path fill="#E0C2FE" opacity="1.000000" stroke="none" 
	d="
M163.505127,127.843887 
	C163.247543,127.279404 163.175110,126.490982 163.211472,125.317436 
	C163.443604,125.828186 163.566925,126.724068 163.505127,127.843887 
z"/>
</svg>